<svg width="206" height="36" viewBox="0 0 206 36" fill="none" xmlns="http://www.w3.org/2000/svg">
<g clip-path="url(#clip0_885_478)">
<path d="M74.7735 36H0L6.05989 13.3495C8.16532 5.47485 15.2978 0 23.4469 0H98.2204L92.1605 22.6506C90.0551 30.5233 82.9226 35.9982 74.7717 35.9982L74.7735 36Z" fill="#64C1ED"/>
<path d="M9.72191 14.3498L4.96753 32.1232H74.8549C81.2506 32.1232 86.8465 27.8256 88.4986 21.6484L93.253 3.875H23.3657C16.9699 3.875 11.3741 8.17254 9.72191 14.3498Z" fill="#6A281C"/>
<path fill-rule="evenodd" clip-rule="evenodd" d="M69.7357 26.1319C70.4832 26.791 71.5251 27.1196 72.8559 27.1196C73.8129 27.1196 74.6814 26.9246 75.4597 26.5364C76.2271 26.159 76.8284 25.6696 77.2581 25.0684C77.2708 25.0503 77.2997 25.0593 77.2997 25.081V26.8271C77.2997 26.8524 77.3195 26.8722 77.3448 26.8722H80.2411C80.2664 26.8722 80.2863 26.8524 80.2863 26.8271V19.4184C80.2863 17.8763 79.8006 16.6719 78.8273 15.8034C77.854 14.9348 76.4691 14.5015 74.6742 14.5015C73.3127 14.5015 72.1661 14.7633 71.2398 15.2869C70.8263 15.5181 70.4435 15.7799 70.0896 16.0724C70.0697 16.0887 70.0679 16.1176 70.0842 16.1356L71.8032 18.1742C71.8194 18.1941 71.8483 18.1959 71.8682 18.1797C72.3882 17.7246 72.9046 17.4483 73.3849 17.2876C73.7533 17.1522 74.1758 17.0836 74.6525 17.0836C75.5355 17.0836 76.1946 17.2858 76.628 17.6903C77.0613 18.0948 77.2798 18.6257 77.2798 19.2847V19.3967C77.2798 19.422 77.26 19.4418 77.2347 19.4418H74.091C72.399 19.4418 71.0683 19.8012 70.095 20.5198C69.1217 21.2385 68.636 22.2334 68.636 23.5064C68.636 24.5844 69.0025 25.4602 69.7357 26.1337V26.1319ZM74.8548 24.4039C74.4954 24.5086 74.1289 24.561 73.7551 24.561C72.4984 24.561 71.87 24.1204 71.87 23.2356C71.87 22.7571 72.065 22.3833 72.4532 22.1124C72.8577 21.8434 73.524 21.708 74.4521 21.708H77.2473C77.2762 21.708 77.2979 21.7351 77.2907 21.7621C77.1931 22.2027 77.0505 22.6993 76.7273 23.1417C76.5142 23.4324 76.1802 23.7574 75.866 23.9524C75.5518 24.1474 75.2141 24.2973 74.8548 24.4021V24.4039Z" fill="white"/>
<path fill-rule="evenodd" clip-rule="evenodd" d="M57.3162 26.6899C58.0259 26.977 58.7572 27.1196 59.5101 27.1196C60.3101 27.1196 61.0323 26.9535 61.6824 26.6212C62.3252 26.2854 62.8615 25.8285 63.293 25.2525C63.3057 25.2345 63.3346 25.2435 63.3346 25.2652V26.8253C63.3346 26.8506 63.3544 26.8704 63.3797 26.8704H66.3663C66.3916 26.8704 66.4115 26.8506 66.4115 26.8253V9.06815C66.4115 9.04287 66.3916 9.02301 66.3663 9.02301H63.3797C63.3544 9.02301 63.3346 9.04287 63.3346 9.06815V16.1483C63.3346 16.1699 63.3075 16.179 63.293 16.1627C62.8777 15.6156 62.3559 15.1894 61.7275 14.8825C61.0937 14.5665 60.3696 14.4076 59.5553 14.4076C58.7409 14.4076 58.0168 14.5592 57.2927 14.8608C56.5831 15.1479 55.9583 15.5704 55.4148 16.1284C54.8713 16.6863 54.4343 17.3581 54.1021 18.1417C53.7861 18.9254 53.6272 19.8012 53.6272 20.7654C53.6272 21.7296 53.7933 22.6289 54.1256 23.4125C54.4578 24.1818 54.8948 24.8444 55.4383 25.4024C55.9818 25.9604 56.6066 26.3901 57.3162 26.6917V26.6899ZM60.1313 24.1836C62.0381 24.1836 63.5838 22.6379 63.5838 20.7311C63.5838 18.8243 62.0381 17.2768 60.1313 17.2768C58.2245 17.2768 56.6788 18.8225 56.6788 20.7311C56.6788 22.6397 58.2245 24.1836 60.1313 24.1836Z" fill="white"/>
<path d="M40.1296 14.7019C40.1296 14.6766 40.1495 14.6568 40.1748 14.6568H43.2065C43.2318 14.6568 43.2517 14.6766 43.2517 14.7019V16.123C43.2517 16.1447 43.2806 16.1537 43.2932 16.1356C43.6796 15.6048 44.1617 15.1876 44.745 14.8825C45.3625 14.5665 46.0577 14.4076 46.8269 14.4076C48.2751 14.4076 49.4217 14.8608 50.265 15.7655C51.1245 16.6557 51.5542 17.8998 51.5542 19.4978V26.8271C51.5542 26.8524 51.5344 26.8723 51.5091 26.8723H48.4177C48.3925 26.8723 48.3726 26.8524 48.3726 26.8271V19.738C48.3726 18.3295 47.2314 17.1884 45.823 17.1884C44.4145 17.1884 43.2733 18.3295 43.2733 19.738V26.8271C43.2733 26.8524 43.2535 26.8723 43.2282 26.8723H40.1766C40.1513 26.8723 40.1314 26.8524 40.1314 26.8271V14.7019H40.1296Z" fill="white"/>
<path d="M29.2775 14.7019C29.2775 14.6766 29.2576 14.6567 29.2323 14.6567H26.1428C26.1175 14.6567 26.0977 14.6766 26.0977 14.7019V21.986C26.0977 23.6003 26.513 24.8589 27.3418 25.7635C28.1706 26.6682 29.3407 27.1214 30.8484 27.1214C31.6032 27.1214 32.2803 26.9625 32.8834 26.6465C33.4649 26.3413 33.9488 25.9224 34.3352 25.3934C34.3478 25.3753 34.3767 25.3843 34.3767 25.406V26.8271C34.3767 26.8524 34.3966 26.8722 34.4219 26.8722L37.4536 26.8505C37.4789 26.8505 37.4988 26.8307 37.4988 26.8054V14.6802C37.4988 14.6549 37.4789 14.6351 37.4536 14.6351L34.3785 14.6567C34.3533 14.6567 34.3334 14.6766 34.3334 14.7019V21.838C34.3334 23.2338 33.2012 24.3659 31.8054 24.3659C30.4096 24.3659 29.2775 23.2338 29.2775 21.838V14.7019Z" fill="white"/>
<path d="M24.6873 9.10249C24.6945 9.07359 24.6729 9.04651 24.644 9.04651H23.1543C22.1594 9.04651 21.3215 9.12957 20.6426 9.29569C19.9799 9.46182 19.4436 9.74892 19.0373 10.1552C18.6455 10.547 18.3584 11.0743 18.1778 11.7388C18.0117 12.4015 17.9286 13.2321 17.9286 14.227V14.6116C17.9286 14.6369 17.9088 14.6568 17.8835 14.6568H15.9604C15.9351 14.6568 15.9153 14.6766 15.9153 14.7019V17.4159C15.9153 17.4412 15.9351 17.461 15.9604 17.461H17.8835C17.9088 17.461 17.9286 17.4809 17.9286 17.5062V26.8271C17.9286 26.8524 17.9485 26.8723 17.9738 26.8723H20.982C21.0073 26.8723 21.0272 26.8524 21.0272 26.8271V17.5062C21.0272 17.4809 21.047 17.461 21.0723 17.461H23.9235C23.9488 17.461 23.9687 17.4412 23.9687 17.4159V14.7019C23.9687 14.6766 23.9488 14.6568 23.9235 14.6568H21.0723C21.047 14.6568 21.0272 14.6369 21.0272 14.6116V14.0681C21.0272 13.6005 21.0489 13.2303 21.0958 12.9594C21.1409 12.6723 21.2457 12.4538 21.4118 12.304C21.5924 12.1378 21.8416 12.0331 22.1575 11.988C22.4735 11.9284 22.9033 11.8977 23.4468 11.8977H23.9325C23.9524 11.8977 23.9705 11.8832 23.9759 11.8634L24.6855 9.10429L24.6873 9.10249Z" fill="white"/>
<path d="M202.109 27.24C200.469 27.24 198.969 26.72 197.969 25.74L198.929 24.22C199.609 24.92 200.949 25.58 202.209 25.58C203.469 25.58 204.109 25.04 204.109 24.28C204.109 23.48 203.089 23.26 201.909 23C200.249 22.64 198.269 22.2 198.269 20.04C198.269 18.46 199.629 17.1 202.069 17.1C203.709 17.1 204.949 17.68 205.829 18.46L204.949 19.94C204.369 19.28 203.289 18.78 202.089 18.78C200.989 18.78 200.289 19.28 200.289 19.96C200.289 20.66 201.249 20.86 202.389 21.12C204.069 21.48 206.129 21.96 206.129 24.24C206.129 25.94 204.709 27.24 202.109 27.24Z" fill="white"/>
<path d="M192.676 27.24C191.036 27.24 189.536 26.72 188.536 25.74L189.496 24.22C190.176 24.92 191.516 25.58 192.776 25.58C194.036 25.58 194.676 25.04 194.676 24.28C194.676 23.48 193.656 23.26 192.476 23C190.816 22.64 188.836 22.2 188.836 20.04C188.836 18.46 190.196 17.1 192.636 17.1C194.276 17.1 195.516 17.68 196.396 18.46L195.516 19.94C194.936 19.28 193.856 18.78 192.656 18.78C191.556 18.78 190.856 19.28 190.856 19.96C190.856 20.66 191.816 20.86 192.956 21.12C194.636 21.48 196.696 21.96 196.696 24.24C196.696 25.94 195.276 27.24 192.676 27.24Z" fill="white"/>
<path d="M182.703 27.24C179.803 27.24 177.643 25.22 177.643 22.16C177.643 19.36 179.683 17.1 182.543 17.1C185.443 17.1 187.303 19.32 187.303 22.36V22.86H179.843C180.003 24.32 181.103 25.52 182.923 25.52C183.863 25.52 184.983 25.14 185.663 24.46L186.623 25.84C185.663 26.76 184.243 27.24 182.703 27.24ZM185.263 21.38C185.223 20.24 184.443 18.82 182.543 18.82C180.743 18.82 179.923 20.2 179.823 21.38H185.263Z" fill="white"/>
<path d="M175.515 27H173.415V20.96C173.415 19.46 172.655 18.96 171.475 18.96C170.395 18.96 169.475 19.6 168.995 20.26V27H166.895V17.34H168.995V18.66C169.635 17.9 170.875 17.1 172.395 17.1C174.475 17.1 175.515 18.22 175.515 20.2V27Z" fill="white"/>
<path d="M163.111 16.16C162.411 16.16 161.811 15.58 161.811 14.86C161.811 14.14 162.411 13.56 163.111 13.56C163.831 13.56 164.411 14.14 164.411 14.86C164.411 15.58 163.831 16.16 163.111 16.16ZM164.171 27H162.071V17.34H164.171V27Z" fill="white"/>
<path d="M155.937 27.24C154.297 27.24 152.797 26.72 151.797 25.74L152.757 24.22C153.437 24.92 154.777 25.58 156.037 25.58C157.297 25.58 157.937 25.04 157.937 24.28C157.937 23.48 156.917 23.26 155.737 23C154.077 22.64 152.097 22.2 152.097 20.04C152.097 18.46 153.457 17.1 155.897 17.1C157.537 17.1 158.777 17.68 159.657 18.46L158.777 19.94C158.197 19.28 157.117 18.78 155.917 18.78C154.817 18.78 154.117 19.28 154.117 19.96C154.117 20.66 155.077 20.86 156.217 21.12C157.897 21.48 159.957 21.96 159.957 24.24C159.957 25.94 158.537 27.24 155.937 27.24Z" fill="white"/>
<path d="M149.91 27H147.81V25.72C147.11 26.5 145.91 27.24 144.39 27.24C142.31 27.24 141.29 26.16 141.29 24.18V17.34H143.39V23.42C143.39 24.92 144.15 25.38 145.33 25.38C146.39 25.38 147.31 24.78 147.81 24.12V17.34H149.91V27Z" fill="white"/>
<path d="M131.769 24.1C132.229 24.82 133.269 25.38 134.249 25.38C135.929 25.38 136.989 24.06 136.989 22.18C136.989 20.3 135.929 18.96 134.249 18.96C133.269 18.96 132.229 19.56 131.769 20.28V24.1ZM131.769 27H129.669V13.66H131.769V18.68C132.529 17.66 133.649 17.1 134.869 17.1C137.349 17.1 139.149 19.06 139.149 22.18C139.149 25.36 137.329 27.24 134.869 27.24C133.609 27.24 132.509 26.64 131.769 25.68V27Z" fill="white"/>
<path d="M121.804 27H119.704V20.96C119.704 19.46 118.944 18.96 117.764 18.96C116.684 18.96 115.764 19.6 115.284 20.26V27H113.184V17.34H115.284V18.66C115.924 17.9 117.164 17.1 118.684 17.1C120.764 17.1 121.804 18.22 121.804 20.2V27Z" fill="white"/>
<path d="M109.4 16.16C108.7 16.16 108.1 15.58 108.1 14.86C108.1 14.14 108.7 13.56 109.4 13.56C110.12 13.56 110.7 14.14 110.7 14.86C110.7 15.58 110.12 16.16 109.4 16.16ZM110.46 27H108.36V17.34H110.46V27Z" fill="white"/>
</g>
<defs>
<clipPath id="clip0_885_478">
<rect width="206" height="36" fill="white"/>
</clipPath>
</defs>
</svg>
