<svg width="18" height="18" viewBox="0 0 18 18" fill="none" xmlns="http://www.w3.org/2000/svg">
<path fill-rule="evenodd" clip-rule="evenodd" d="M17.5181 1.75002C17.5181 1.3358 17.1823 1.00002 16.7681 1.00002H11.7681C11.3539 1.00002 11.0181 1.3358 11.0181 1.75002V6.75002C11.0181 7.16423 11.3539 7.50002 11.7681 7.50002C12.1823 7.50002 12.5181 7.16423 12.5181 6.75002V3.25002C15.3575 5.22143 16.3328 8.97032 14.8141 12.0755C13.2953 15.1807 9.73732 16.7124 6.43795 15.6814C3.13858 14.6503 1.08582 11.3653 1.60541 7.94783C2.125 4.53038 5.06135 2.00388 8.51806 2.00002V0.500018C4.39312 0.491648 0.857571 3.44608 0.132985 7.5069C-0.591602 11.5677 1.70395 15.5626 5.57723 16.9814C9.45051 18.4002 13.7834 16.8333 15.8532 13.2652C17.9231 9.69719 17.1324 5.15806 13.9781 2.50002H16.7681C17.1823 2.50002 17.5181 2.16423 17.5181 1.75002Z" fill="#0071B3"/>
</svg>
