<svg width="22" height="18" viewBox="0 0 22 18" fill="none" xmlns="http://www.w3.org/2000/svg">
<path fill-rule="evenodd" clip-rule="evenodd" d="M20.5 15.4531C19.12 14.7356 17.414 14.1861 15.5 13.8436V4.15612C17.414 3.81362 19.12 3.26412 20.5 2.54712V15.4531ZM8 4.37762C8.9625 4.48712 9.9635 4.55012 11 4.55012C12.0365 4.55012 13.0375 4.48712 14 4.37762V13.6226C13.0375 13.5131 12.0365 13.4501 11 13.4501C9.9635 13.4501 8.9625 13.5131 8 13.6226V4.37762ZM1.5 2.54712C2.88 3.26412 4.586 3.81362 6.5 4.15612V13.8436C4.586 14.1861 2.88 14.7356 1.5 15.4531V2.54712ZM20.8415 0.622122C20.8335 0.627122 20.8265 0.632122 20.819 0.637622C18.698 2.07712 15.05 3.05012 11 3.05012C6.95 3.05012 3.302 2.07712 1.181 0.637622C1.1735 0.632122 1.1665 0.627122 1.1585 0.622122C1.041 0.545622 0.901 0.500122 0.75 0.500122C0.3355 0.500122 0 0.835622 0 1.25012V16.7501C0 17.1641 0.3355 17.5001 0.75 17.5001C0.901 17.5001 1.041 17.4546 1.1585 17.3776C1.1665 17.3726 1.1735 17.3676 1.181 17.3621C3.302 15.9226 6.95 14.9501 11 14.9501C15.05 14.9501 18.698 15.9226 20.819 17.3621C20.8265 17.3676 20.834 17.3726 20.8415 17.3776C20.959 17.4546 21.099 17.5001 21.25 17.5001C21.6645 17.5001 22 17.1641 22 16.7501V1.25012C22 0.835622 21.6645 0.500122 21.25 0.500122C21.099 0.500122 20.959 0.545622 20.8415 0.622122Z" fill="#0071B3"/>
</svg>
