<svg width="32" height="32" viewBox="0 0 32 32" fill="none" xmlns="http://www.w3.org/2000/svg">
<g filter="url(#filter0_b_333_10733)">
<path d="M0 16C0 7.16344 7.16344 0 16 0C24.8366 0 32 7.16344 32 16C32 24.8366 24.8366 32 16 32C7.16344 32 0 24.8366 0 16Z" fill="black" fill-opacity="0.6"/>
<path fill-rule="evenodd" clip-rule="evenodd" d="M25.5 22.4532C24.12 21.7357 22.414 21.1862 20.5 20.8437V11.1562C22.414 10.8137 24.12 10.2642 25.5 9.54724V22.4532ZM13 11.3777C13.9625 11.4872 14.9635 11.5502 16 11.5502C17.0365 11.5502 18.0375 11.4872 19 11.3777V20.6227C18.0375 20.5132 17.0365 20.4502 16 20.4502C14.9635 20.4502 13.9625 20.5132 13 20.6227V11.3777ZM6.5 9.54724C7.88 10.2642 9.586 10.8137 11.5 11.1562V20.8437C9.586 21.1862 7.88 21.7357 6.5 22.4532V9.54724ZM25.8415 7.62224C25.8335 7.62724 25.8265 7.63224 25.819 7.63774C23.698 9.07724 20.05 10.0502 16 10.0502C11.95 10.0502 8.302 9.07724 6.181 7.63774C6.1735 7.63224 6.1665 7.62724 6.1585 7.62224C6.041 7.54574 5.901 7.50024 5.75 7.50024C5.3355 7.50024 5 7.83574 5 8.25024V23.7502C5 24.1642 5.3355 24.5002 5.75 24.5002C5.901 24.5002 6.041 24.4547 6.1585 24.3777C6.1665 24.3727 6.1735 24.3677 6.181 24.3622C8.302 22.9227 11.95 21.9502 16 21.9502C20.05 21.9502 23.698 22.9227 25.819 24.3622C25.8265 24.3677 25.834 24.3727 25.8415 24.3777C25.959 24.4547 26.099 24.5002 26.25 24.5002C26.6645 24.5002 27 24.1642 27 23.7502V8.25024C27 7.83574 26.6645 7.50024 26.25 7.50024C26.099 7.50024 25.959 7.54574 25.8415 7.62224Z" fill="white"/>
</g>
<defs>
<filter id="filter0_b_333_10733" x="-2" y="-2" width="36" height="36" filterUnits="userSpaceOnUse" color-interpolation-filters="sRGB">
<feFlood flood-opacity="0" result="BackgroundImageFix"/>
<feGaussianBlur in="BackgroundImageFix" stdDeviation="1"/>
<feComposite in2="SourceAlpha" operator="in" result="effect1_backgroundBlur_333_10733"/>
<feBlend mode="normal" in="SourceGraphic" in2="effect1_backgroundBlur_333_10733" result="shape"/>
</filter>
</defs>
</svg>
