<svg width="20" height="19" viewBox="0 0 20 19" fill="none" xmlns="http://www.w3.org/2000/svg">
<path fill-rule="evenodd" clip-rule="evenodd" d="M8.2506 4.41613e-07H0.7506C0.651687 -1.31131e-06 0.55375 0.0195626 0.462428 0.0575659C0.371106 0.0955692 0.288204 0.151261 0.218495 0.221436C0.148785 0.29161 0.0936448 0.374881 0.0562491 0.466453C0.0188534 0.558025 -5.9139e-05 0.65609 0.000600285 0.755001V7.255C-0.00344245 7.35599 0.0129673 7.45675 0.048844 7.55124C0.0847208 7.64572 0.139325 7.73198 0.209375 7.80483C0.279426 7.87769 0.363479 7.93563 0.456485 7.97518C0.549492 8.01473 0.649533 8.03508 0.7506 8.035H8.2506C8.44951 8.035 8.64028 7.95598 8.78093 7.81533C8.92158 7.67468 9.0006 7.48391 9.0006 7.285V0.785001C9.00534 0.683604 8.98944 0.582302 8.95388 0.487229C8.91831 0.392156 8.86382 0.305291 8.7937 0.231897C8.72358 0.158503 8.63929 0.100108 8.54593 0.0602469C8.45258 0.0203862 8.35211 -0.000109706 8.2506 4.41613e-07ZM1.5006 1.505H7.5006V6.535H1.5006V1.505Z" fill="#0071B3"/>
<path fill-rule="evenodd" clip-rule="evenodd" d="M0.750616 10.0349H8.25062C8.44953 10.0349 8.64029 10.1139 8.78095 10.2546C8.9216 10.3952 9.00062 10.586 9.00062 10.7849V17.2849C9.00062 17.4838 8.9216 17.6746 8.78095 17.8152C8.64029 17.9559 8.44953 18.0349 8.25062 18.0349H0.750616C0.651277 18.0349 0.552927 18.0152 0.461275 17.9769C0.369623 17.9386 0.286495 17.8824 0.216719 17.8117C0.146943 17.741 0.091908 17.6571 0.0548104 17.565C0.0177129 17.4728 -0.000708523 17.3742 0.000615991 17.2749V10.7749C0.00324521 10.5777 0.083422 10.3895 0.22379 10.251C0.364159 10.1125 0.553424 10.0349 0.750616 10.0349ZM7.50062 11.5349H1.50062V16.5349H7.50062V11.5349Z" fill="#0071B3"/>
<path fill-rule="evenodd" clip-rule="evenodd" d="M11.7506 10.0349H19.2506C19.4495 10.0349 19.6403 10.1139 19.7809 10.2546C19.9216 10.3952 20.0006 10.586 20.0006 10.7849V17.2849C20.0006 17.4838 19.9216 17.6746 19.7809 17.8152C19.6403 17.9559 19.4495 18.0349 19.2506 18.0349H11.7506C11.5517 18.0349 11.3609 17.9559 11.2203 17.8152C11.0796 17.6746 11.0006 17.4838 11.0006 17.2849V10.7849C11.0006 10.586 11.0796 10.3952 11.2203 10.2546C11.3609 10.1139 11.5517 10.0349 11.7506 10.0349ZM18.5006 11.5349H12.5006V16.5349H18.5006V11.5349Z" fill="#0071B3"/>
<path fill-rule="evenodd" clip-rule="evenodd" d="M11.7506 0.0349126H19.2506C19.4495 0.0349126 19.6403 0.11393 19.7809 0.254582C19.9216 0.395235 20.0006 0.586 20.0006 0.784913V7.28491C20.0006 7.48382 19.9216 7.67459 19.7809 7.81524C19.6403 7.95589 19.4495 8.03491 19.2506 8.03491H11.7506C11.6508 8.03493 11.5521 8.01505 11.4601 7.97642C11.3681 7.9378 11.2847 7.88121 11.2149 7.80997C11.1451 7.73873 11.0901 7.65427 11.0533 7.56153C11.0165 7.4688 10.9986 7.36966 11.0006 7.26991V0.769912C11.0045 0.573611 11.0853 0.386677 11.2255 0.249253C11.3657 0.111829 11.5543 0.0348733 11.7506 0.0349126ZM18.5006 1.53491H12.5006V6.53491H18.5006V1.53491Z" fill="#0071B3"/>
</svg>
