<svg width="18" height="18" viewBox="0 0 18 18" fill="none" xmlns="http://www.w3.org/2000/svg">
<path d="M16.5 1.44139C15.5605 0.532597 14.3071 0.020496 13 0.0113945C11.9176 0.00774785 10.8638 0.359013 10 1.01139C9.62141 1.29617 9.28478 1.63281 9 2.01139C8.71522 1.63281 8.37859 1.29617 8 1.01139C7.13751 0.355273 6.08369 0 5 0C3.91631 0 2.86249 0.355273 2 1.01139C1.37611 1.4744 0.869972 2.07776 0.522522 2.77266C0.175072 3.46756 -0.00392881 4.23448 0 5.01139C0 12.5114 8 17.0114 9 17.0114C10 17.0114 18 12.5114 18 5.01139C17.9999 4.34649 17.8672 3.68828 17.6096 3.07529C17.3521 2.46229 16.9748 1.90683 16.5 1.44139Z" fill="#0071B3"/>
</svg>
