<svg width="18" height="18" viewBox="0 0 18 18" fill="none" xmlns="http://www.w3.org/2000/svg">
<path d="M16.5 1.93001C15.5605 1.02121 14.3071 0.509113 13 0.500011C11.9176 0.496365 10.8638 0.84763 10 1.50001C9.62141 1.78479 9.28478 2.12142 9 2.50001C8.71522 2.12142 8.37859 1.78479 8 1.50001C7.13751 0.84389 6.0837 0.488617 5 0.488617C3.91631 0.488617 2.8625 0.84389 2 1.50001C1.37612 1.96302 0.869974 2.56637 0.522524 3.26127C0.175075 3.95617 -0.00392655 4.7231 2.26755e-06 5.50001C2.26755e-06 13 8 17.5 9 17.5C10 17.5 18 13 18 5.50001C17.9999 4.83511 17.8672 4.1769 17.6096 3.5639C17.3521 2.95091 16.9748 2.39544 16.5 1.93001ZM9 15.93C6.31716 14.6026 4.09967 12.4932 2.64 9.88001C1.90838 8.53487 1.517 7.03115 1.5 5.50001C1.50032 4.69664 1.77701 3.91784 2.28361 3.29433C2.79021 2.67083 3.49589 2.24058 4.28218 2.07582C5.06848 1.91105 5.88752 2.0218 6.60182 2.38947C7.31611 2.75714 7.88218 3.35935 8.205 4.09501C8.235 4.16501 8.26 4.24001 8.29 4.31501C8.34024 4.46208 8.43522 4.58976 8.56164 4.68017C8.68806 4.77057 8.83958 4.81918 8.995 4.81918C9.15042 4.81918 9.30195 4.77057 9.42836 4.68017C9.55478 4.58976 9.64976 4.46208 9.7 4.31501C9.725 4.24001 9.755 4.16501 9.785 4.09501C10.1041 3.35322 10.67 2.74461 11.3866 2.37235C12.1032 2.00008 12.9265 1.88705 13.7169 2.05243C14.5073 2.21781 15.2162 2.65142 15.7234 3.27976C16.2307 3.90809 16.505 4.6925 16.5 5.50001C16.4871 7.03963 16.0956 8.55242 15.36 9.90501C13.9003 12.5182 11.6828 14.6276 9 15.955V15.93Z" fill="white"/>
</svg>
