<svg width="20" height="20" viewBox="0 0 20 20" fill="none" xmlns="http://www.w3.org/2000/svg">
<path d="M10.5605 0.468239L19.1665 10.0262C19.4435 10.3342 19.4185 10.8082 19.111 11.0857C18.803 11.3627 18.329 11.3377 18.052 11.0302L9.99948 2.08674L1.94848 11.0277C1.67148 11.3357 1.19748 11.3602 0.889478 11.0832C0.581478 10.8062 0.556478 10.3317 0.833478 10.0242L9.43998 0.466239C9.44775 0.457358 9.45737 0.451405 9.46695 0.445471C9.47464 0.440713 9.4823 0.435968 9.48898 0.429739C9.50132 0.418346 9.51466 0.409157 9.52812 0.399889C9.53592 0.394514 9.54377 0.389112 9.55148 0.383239C9.60948 0.338739 9.66998 0.299739 9.73548 0.274739C9.75775 0.266201 9.78057 0.261521 9.80354 0.256813C9.81151 0.255179 9.81949 0.253542 9.82748 0.251739C9.88748 0.237239 9.94748 0.225739 10.0085 0.225739C10.0431 0.226582 10.0773 0.23312 10.1115 0.239648C10.1178 0.240857 10.1241 0.242066 10.1305 0.243239C10.1805 0.252239 10.2305 0.261239 10.2785 0.280239C10.328 0.300239 10.3735 0.331739 10.4185 0.363239C10.4255 0.368041 10.4326 0.372739 10.4397 0.37743C10.4673 0.395697 10.4947 0.413869 10.519 0.437739C10.5247 0.443229 10.5314 0.447255 10.5381 0.4513C10.546 0.456094 10.554 0.460916 10.5605 0.468239Z" fill="#0071B3"/>
<path d="M4.50023 18.2743H15.5002V9.69479L17.0002 11.3608V19.0243C17.0002 19.4378 16.6652 19.7733 16.2517 19.7743H3.75023C3.33573 19.7743 3.00023 19.4388 3.00023 19.0243V11.3613L4.50023 9.69529V18.2743Z" fill="#0071B3"/>
</svg>
