<svg width="19" height="20" viewBox="0 0 19 20" fill="none" xmlns="http://www.w3.org/2000/svg">
<path d="M10.0605 0.468239L18.6665 10.0262C18.9435 10.3342 18.9185 10.8082 18.611 11.0857C18.303 11.3627 17.829 11.3377 17.552 11.0302L9.49948 2.08674L1.44848 11.0277C1.17148 11.3357 0.697478 11.3602 0.389478 11.0832C0.0814779 10.8062 0.0564779 10.3317 0.333478 10.0242L8.93998 0.466239C8.94775 0.457358 8.95737 0.451405 8.96695 0.445471C8.97464 0.440713 8.9823 0.435968 8.98898 0.429739C9.00132 0.418346 9.01466 0.409157 9.02812 0.399889C9.03592 0.394514 9.04377 0.389112 9.05148 0.383239C9.10948 0.338739 9.16998 0.299739 9.23548 0.274739C9.25775 0.266201 9.28057 0.261521 9.30354 0.256813C9.31151 0.255179 9.31949 0.253542 9.32748 0.251739C9.38748 0.237239 9.44748 0.225739 9.50848 0.225739C9.54307 0.226582 9.5773 0.23312 9.61148 0.239648C9.61782 0.240857 9.62415 0.242066 9.63048 0.243239C9.68048 0.252239 9.73048 0.261239 9.77848 0.280239C9.82798 0.300239 9.87348 0.331739 9.91848 0.363239C9.92553 0.368041 9.93262 0.372739 9.9397 0.37743C9.96728 0.395697 9.99471 0.413869 10.019 0.437739C10.0247 0.443229 10.0314 0.447255 10.0381 0.4513C10.046 0.456094 10.054 0.460916 10.0605 0.468239Z" fill="white"/>
<path d="M4.00023 18.2743H15.0002V9.69479L16.5002 11.3608V19.0243C16.5002 19.4378 16.1652 19.7733 15.7517 19.7743H3.25023C2.83573 19.7743 2.50023 19.4388 2.50023 19.0243V11.3613L4.00023 9.69529V18.2743Z" fill="white"/>
</svg>
