<svg width="18" height="12" viewBox="0 0 18 12" fill="none" xmlns="http://www.w3.org/2000/svg">
<path d="M0 1C0 0.585786 0.335786 0.25 0.75 0.25H15.75C16.1642 0.25 16.5 0.585786 16.5 1C16.5 1.41421 16.1642 1.75 15.75 1.75H0.75C0.335787 1.75 0 1.41421 0 1Z" fill="white"/>
<path d="M0 6C0 5.58579 0.335786 5.25 0.75 5.25H17.25C17.6642 5.25 18 5.58579 18 6C18 6.41421 17.6642 6.75 17.25 6.75H0.75C0.335787 6.75 0 6.41421 0 6Z" fill="white"/>
<path d="M0.75 10.25C0.335786 10.25 0 10.5858 0 11C0 11.4142 0.335786 11.75 0.75 11.75H11.75C12.1642 11.75 12.5 11.4142 12.5 11C12.5 10.5858 12.1642 10.25 11.75 10.25H0.75Z" fill="white"/>
</svg>
