<svg width="14" height="19" viewBox="0 0 14 19" fill="none" xmlns="http://www.w3.org/2000/svg">
<path d="M11.4479 4.93739L7.55878 1.0483C7.42287 0.90286 7.23472 0.817412 7.03578 0.810781C6.83683 0.804149 6.64341 0.876878 6.49812 1.01295L2.60903 4.90203C2.31614 5.19493 2.31614 5.6698 2.60903 5.96269C2.90192 6.25559 3.3768 6.25559 3.66969 5.96269L6.27891 3.35347L6.27538 12.9928C6.28569 13.3946 6.60897 13.7179 7.01077 13.7282C7.42462 13.728 7.76005 13.3925 7.7603 12.9787L7.77798 3.38882L10.3872 5.99805C10.6801 6.29094 11.155 6.29094 11.4479 5.99805C11.7408 5.70515 11.7408 5.23028 11.4479 4.93739Z" fill="#0071B3"/>
<path d="M9.75 8.74999C9.75 9.1642 10.0858 9.49999 10.5 9.49999H12.5V17H1.5V9.49999H3.5C3.91421 9.49999 4.25 9.1642 4.25 8.74999C4.25 8.33577 3.91421 7.99999 3.5 7.99999H1.5C0.671573 7.99999 0 8.67156 0 9.49999V17C0 17.8284 0.671573 18.5 1.5 18.5H12.5C13.3284 18.5 14 17.8284 14 17V9.49999C14 8.67156 13.3284 7.99999 12.5 7.99999H10.5C10.0858 7.99999 9.75 8.33577 9.75 8.74999Z" fill="#0071B3"/>
</svg>
