<svg width="21" height="22" viewBox="0 0 21 22" fill="none" xmlns="http://www.w3.org/2000/svg">
<path d="M0 11C0 5.20101 4.70101 0.5 10.5 0.5C13.2848 0.5 15.9555 1.60625 17.9246 3.57538C19.8938 5.54451 21 8.21523 21 11C21 11.4258 20.9747 11.8457 20.9254 12.2583C20.5136 11.7806 20.0335 11.3634 19.5003 11.022C19.5054 9.93154 19.3122 8.82972 18.9076 7.7704C17.5761 4.28449 14.2315 1.9818 10.5 1.9818C6.76846 1.9818 3.42395 4.28449 2.09245 7.7704C0.760951 11.2563 1.71867 15.2023 4.5 17.69V16.25C4.5008 16.1823 4.51089 16.115 4.53 16.05C4.78 14.055 6.685 12.5 9 12.5H10.8762C10.5203 12.9552 10.2237 13.4591 9.99816 14H9C8.81745 14.0011 8.63525 14.0161 8.455 14.045C7.06 14.26 6 15.275 6 16.5V18.78C7.39622 19.5952 8.95857 20.001 10.5202 19.9975C10.862 20.5318 11.2797 21.0129 11.7583 21.4254C11.3457 21.4747 10.9258 21.5 10.5 21.5C4.70101 21.5 0 16.799 0 11Z" fill="white"/>
<path fill-rule="evenodd" clip-rule="evenodd" d="M6.5 7.5C6.5 5.29086 8.29086 3.5 10.5 3.5C11.5609 3.5 12.5783 3.92143 13.3284 4.67157C14.0786 5.42172 14.5 6.43913 14.5 7.5C14.5 9.70914 12.7091 11.5 10.5 11.5C8.29086 11.5 6.5 9.70914 6.5 7.5ZM8 7.5C8 8.88071 9.11929 10 10.5 10C11.8807 10 13 8.88071 13 7.5C13 6.11929 11.8807 5 10.5 5C9.11929 5 8 6.11929 8 7.5Z" fill="white"/>
<path fill-rule="evenodd" clip-rule="evenodd" d="M16.0044 21.5044C18.7658 21.5044 21.0044 19.2658 21.0044 16.5044C21.0044 13.743 18.7658 11.5044 16.0044 11.5044C13.243 11.5044 11.0044 13.743 11.0044 16.5044C11.0044 19.2658 13.243 21.5044 16.0044 21.5044ZM18.0347 14.4741C18.3276 14.767 18.3276 15.2418 18.0347 15.5347L17.0651 16.5044L18.0347 17.4741C18.3276 17.767 18.3276 18.2418 18.0347 18.5347C17.7418 18.8276 17.267 18.8276 16.9741 18.5347L16.0044 17.5651L15.0347 18.5347C14.7418 18.8276 14.267 18.8276 13.9741 18.5347C13.6812 18.2418 13.6812 17.767 13.9741 17.4741L14.9437 16.5044L13.9741 15.5347C13.6812 15.2418 13.6812 14.767 13.9741 14.4741C14.267 14.1812 14.7418 14.1812 15.0347 14.4741L16.0044 15.4437L16.9741 14.4741C17.267 14.1812 17.7418 14.1812 18.0347 14.4741Z" fill="white"/>
</svg>
