<svg width="15" height="18" viewBox="0 0 15 18" fill="none" xmlns="http://www.w3.org/2000/svg">
<path fill-rule="evenodd" clip-rule="evenodd" d="M14.6967 8.62503C14.6321 8.52578 14.5447 8.44348 14.4417 8.38503L14.3867 8.34003L1.77669 0.150029L1.69669 0.110029H1.65169L1.56169 0.0800293H1.50669L1.41669 0.0300293H1.21169C1.00704 0.0640232 0.825839 0.181807 0.711691 0.355029C0.69251 0.387045 0.675795 0.420475 0.661691 0.455029C0.647384 0.489093 0.635684 0.524194 0.626691 0.560029V0.600029C0.624436 0.633325 0.624436 0.666734 0.626691 0.700029C0.626691 0.700029 0.626691 0.730029 0.626691 0.745029V17.245C0.626691 17.245 0.626691 17.275 0.626691 17.29C0.624451 17.3233 0.624451 17.3567 0.626691 17.39V17.43C0.635684 17.4659 0.647384 17.501 0.661691 17.535C0.677187 17.5714 0.69558 17.6066 0.716691 17.64C0.830839 17.8133 1.01204 17.931 1.21669 17.965H1.56669L1.65669 17.935H1.69669L1.77669 17.895L14.4817 9.64503C14.8165 9.41854 14.9116 8.96741 14.6967 8.62503ZM2.11669 2.16003L12.6967 9.03003L2.11669 15.9V2.16003Z" fill="#0071B3"/>
</svg>
