<svg width="33" height="32" viewBox="0 0 33 32" fill="none" xmlns="http://www.w3.org/2000/svg">
<g filter="url(#filter0_b_333_10030)">
<path d="M0.875 16C0.875 7.16344 8.03844 0 16.875 0C25.7116 0 32.875 7.16344 32.875 16C32.875 24.8366 25.7116 32 16.875 32C8.03844 32 0.875 24.8366 0.875 16Z" fill="black" fill-opacity="0.6"/>
<path fill-rule="evenodd" clip-rule="evenodd" d="M25.5717 15.625C25.5071 15.5258 25.4197 15.4435 25.3167 15.385L25.2617 15.34L12.6517 7.15003L12.5717 7.11003H12.5267L12.4367 7.08003H12.3817L12.2917 7.03003H12.0867C11.882 7.06402 11.7008 7.18181 11.5867 7.35503C11.5675 7.38704 11.5508 7.42047 11.5367 7.45503C11.5224 7.48909 11.5107 7.52419 11.5017 7.56003V7.60003C11.4994 7.63332 11.4994 7.66673 11.5017 7.70003C11.5017 7.70003 11.5017 7.73003 11.5017 7.74503V24.245C11.5017 24.245 11.5017 24.275 11.5017 24.29C11.4995 24.3233 11.4995 24.3567 11.5017 24.39V24.43C11.5107 24.4659 11.5224 24.501 11.5367 24.535C11.5522 24.5714 11.5706 24.6066 11.5917 24.64C11.7058 24.8133 11.887 24.931 12.0917 24.965H12.4417L12.5317 24.935H12.5717L12.6517 24.895L25.3567 16.645C25.6915 16.4185 25.7866 15.9674 25.5717 15.625ZM12.9917 9.16003L23.5717 16.03L12.9917 22.9V9.16003Z" fill="white"/>
</g>
<defs>
<filter id="filter0_b_333_10030" x="-1.125" y="-2" width="36" height="36" filterUnits="userSpaceOnUse" color-interpolation-filters="sRGB">
<feFlood flood-opacity="0" result="BackgroundImageFix"/>
<feGaussianBlur in="BackgroundImageFix" stdDeviation="1"/>
<feComposite in2="SourceAlpha" operator="in" result="effect1_backgroundBlur_333_10030"/>
<feBlend mode="normal" in="SourceGraphic" in2="effect1_backgroundBlur_333_10030" result="shape"/>
</filter>
</defs>
</svg>
