<svg width="14" height="23" viewBox="0 0 14 23" fill="none" xmlns="http://www.w3.org/2000/svg">
<path fill-rule="evenodd" clip-rule="evenodd" d="M13.95 6.75998C13.9822 6.67702 13.9991 6.58895 14 6.49998C13.9979 6.41438 13.981 6.32979 13.95 6.24998V6.20998C13.9125 6.13184 13.8618 6.06079 13.8 5.99998V5.96998L8.50001 0.669981C8.2045 0.394622 7.744 0.402747 7.45838 0.68836C7.17277 0.973972 7.16465 1.43447 7.44001 1.72998L11.44 5.72998H7.25001C5.32453 5.73263 3.47898 6.50007 2.11934 7.86346C0.759699 9.22684 -0.00264709 11.0745 6.90643e-06 13C6.90643e-06 13 6.90643e-06 13 6.90643e-06 13.035V21.75C6.90643e-06 22.1642 0.335793 22.5 0.750007 22.5C1.16422 22.5 1.50001 22.1642 1.50001 21.75V13.035C1.50001 13.035 1.50001 13.035 1.50001 13C1.50276 9.82549 4.07551 7.25274 7.25001 7.24998H11.44L7.44001 11.25C7.14177 11.5427 7.1373 12.0217 7.43001 12.32C7.72272 12.6182 8.20177 12.6227 8.50001 12.33L13.765 7.04498V7.01498C13.8209 6.95447 13.8665 6.88522 13.9 6.80998L13.95 6.75998Z" fill="#0071B3"/>
</svg>
