<svg width="20" height="16" viewBox="0 0 20 16" fill="none" xmlns="http://www.w3.org/2000/svg">
<path fill-rule="evenodd" clip-rule="evenodd" d="M18 6L20 9V13.75C20 14.1642 19.6642 14.5 19.25 14.5H17.5V15.25C17.5 15.6642 17.1642 16 16.75 16C16.3358 16 16 15.6642 16 15.25V14.5H4V15.25C4 15.6642 3.66421 16 3.25 16C2.83579 16 2.5 15.6642 2.5 15.25V14.5H0.75C0.335786 14.5 0 14.1642 0 13.75V9L2 6V0.75C2 0.335786 2.33579 0 2.75 0H17.25C17.6642 0 18 0.335786 18 0.75V6ZM16.5 1.5H3.5V4.5H6.5V3.75C6.5 3.33579 6.83579 3 7.25 3H12.75C13.1642 3 13.5 3.33579 13.5 3.75V4.5H16.5V1.5ZM3.5 6L1.5 9H18.5L16.5 6H13.5V6.75C13.5 7.16421 13.1642 7.5 12.75 7.5H7.25C6.83579 7.5 6.5 7.16421 6.5 6.75V6H3.5ZM1.5 13V10.5H18.5V13H1.5ZM8 4.5V6H12V4.5H8Z" fill="#999999"/>
</svg>
