<svg width="32" height="33" viewBox="0 0 32 33" fill="none" xmlns="http://www.w3.org/2000/svg">
<path d="M7 22.75C7 21.9216 7.67157 21.25 8.5 21.25C9.32843 21.25 10 21.9216 10 22.75C10 23.5784 9.32843 24.25 8.5 24.25C7.67157 24.25 7 23.5784 7 22.75Z" fill="#0071B3"/>
<path d="M23.5 21.25C22.6716 21.25 22 21.9216 22 22.75C22 23.5784 22.6716 24.25 23.5 24.25C24.3284 24.25 25 23.5784 25 22.75C25 21.9216 24.3284 21.25 23.5 21.25Z" fill="#0071B3"/>
<path d="M13.375 21.625H18.625C19.2463 21.625 19.75 22.1287 19.75 22.75C19.75 23.3713 19.2463 23.875 18.625 23.875H13.375C12.7537 23.875 12.25 23.3713 12.25 22.75C12.25 22.1287 12.7537 21.625 13.375 21.625Z" fill="#0071B3"/>
<path fill-rule="evenodd" clip-rule="evenodd" d="M25 0.25H7C4.92893 0.25 3.25 1.92893 3.25 4V25C3.25 26.1803 3.80573 27.2918 4.75 28V31.375C4.75 31.9963 5.25368 32.5 5.875 32.5H8.125C8.74632 32.5 9.25 31.9963 9.25 31.375V28.75H22.75V31.375C22.75 31.9963 23.2537 32.5 23.875 32.5H26.125C26.7463 32.5 27.25 31.9963 27.25 31.375V28C28.1943 27.2918 28.75 26.1803 28.75 25V4C28.75 3.00544 28.3549 2.05161 27.6516 1.34835C26.9484 0.645088 25.9946 0.25 25 0.25ZM5.5 16.75V4C5.5 3.17157 6.17157 2.5 7 2.5H25C25.8284 2.5 26.5 3.17157 26.5 4V16.75H5.5ZM7 26.5C6.17157 26.5 5.5 25.8284 5.5 25V19H26.5V25C26.5 25.8284 25.8284 26.5 25 26.5H7Z" fill="#0071B3"/>
<path d="M1.375 3.25C0.75368 3.25 0.25 3.75368 0.25 4.375V9.625C0.25 10.2463 0.75368 10.75 1.375 10.75C1.99632 10.75 2.5 10.2463 2.5 9.625V4.375C2.5 3.75368 1.99632 3.25 1.375 3.25Z" fill="#0071B3"/>
<path d="M29.5 4.375C29.5 3.75368 30.0037 3.25 30.625 3.25C31.2463 3.25 31.75 3.75368 31.75 4.375V9.625C31.75 10.2463 31.2463 10.75 30.625 10.75C30.0037 10.75 29.5 10.2463 29.5 9.625V4.375Z" fill="#0071B3"/>
</svg>
