<svg width="8" height="14" viewBox="0 0 8 14" fill="none" xmlns="http://www.w3.org/2000/svg">
<path fill-rule="evenodd" clip-rule="evenodd" d="M6.815 6.45464L1.5295 1.16864C1.238 0.877137 0.7605 0.877137 0.469 1.16864C0.177 1.46064 0.177 1.93764 0.469 2.22964L5.239 6.99914L0.469 11.7691C0.177 12.0611 0.177 12.5386 0.469 12.8301C0.7605 13.1221 1.238 13.1221 1.5295 12.8301L6.815 7.54464C6.8205 7.53914 6.8275 7.53814 6.833 7.53264C6.9795 7.38614 7.0515 7.19264 7.051 6.99914C7.0515 6.80614 6.9795 6.61264 6.833 6.46614C6.8275 6.46114 6.8205 6.45964 6.815 6.45464Z" fill="#0071B3"/>
</svg>
