<svg width="18" height="20" viewBox="0 0 18 20" fill="none" xmlns="http://www.w3.org/2000/svg">
<path fill-rule="evenodd" clip-rule="evenodd" d="M17.9501 5.605C17.9245 5.46818 17.8603 5.34154 17.7651 5.24L12.8901 0.365C12.7561 0.138978 12.5129 0.000282364 12.2501 0H4.75012C4.3359 0 4.00012 0.335786 4.00012 0.75V12.44L1.54012 10C1.24266 9.80183 0.846688 9.84109 0.59395 10.0938C0.341212 10.3466 0.301943 10.7425 0.500117 11.04L4.24012 14.78C4.31004 14.8507 4.39332 14.9068 4.48512 14.945C4.57248 14.9806 4.6658 14.9992 4.76012 15C4.85444 14.9992 4.94776 14.9806 5.03512 14.945C5.1265 14.9083 5.20975 14.8539 5.28012 14.785L9.00012 11.04C9.2795 10.7496 9.2795 10.2904 9.00012 10C8.7073 9.70755 8.23293 9.70755 7.94012 10L5.50012 12.44V1.5H11.9051L16.5001 6.095V18.5H5.50012V17.75C5.50012 17.3358 5.16433 17 4.75012 17C4.3359 17 4.00012 17.3358 4.00012 17.75V19.25C4.00012 19.6642 4.3359 20 4.75012 20H17.2501C17.6643 20 18.0001 19.6642 18.0001 19.25V5.865C17.9991 5.77604 17.9822 5.68799 17.9501 5.605Z" fill="#0071B3"/>
</svg>
