<svg width="24" height="14" viewBox="0 0 24 14" fill="none" xmlns="http://www.w3.org/2000/svg">
<path fill-rule="evenodd" clip-rule="evenodd" d="M11.6681 9.5C10.2871 9.5 9.16815 8.3805 9.16815 7C9.16815 5.6195 10.2871 4.5 11.6681 4.5C13.0486 4.5 14.1681 5.6195 14.1681 7C14.1681 8.3805 13.0486 9.5 11.6681 9.5ZM11.6681 3C9.45915 3 7.66815 4.791 7.66815 7C7.66815 9.209 9.45915 11 11.6681 11C13.8771 11 15.6681 9.209 15.6681 7C15.6681 4.791 13.8771 3 11.6681 3ZM11.6681 0C6.10165 0 1.93765 4.364 0.794148 5.701C0.150648 6.454 0.150648 7.546 0.794148 8.299C1.93765 9.636 6.10165 14 11.6681 14C17.2346 14 21.3981 9.636 22.5421 8.299C23.1856 7.546 23.1856 6.454 22.5421 5.701C21.3981 4.364 17.2346 0 11.6681 0ZM11.6681 1.5C16.6116 1.5 20.3937 5.4965 21.4021 6.676C21.5626 6.864 21.5626 7.136 21.4021 7.324C20.3937 8.5035 16.6116 12.5 11.6681 12.5C6.72465 12.5 2.94265 8.5035 1.93415 7.324C1.77365 7.136 1.77365 6.864 1.93415 6.676C2.94265 5.4965 6.72465 1.5 11.6681 1.5Z" fill="#999999"/>
</svg>
