<svg width="20" height="18" viewBox="0 0 20 18" fill="none" xmlns="http://www.w3.org/2000/svg">
<path d="M15 2H2V13H2.5V14.5H1.25C0.835786 14.5 0.5 14.1642 0.5 13.75V1.25C0.5 0.835786 0.835786 0.5 1.25 0.5H15.75C16.1642 0.5 16.5 0.835786 16.5 1.25V2.5H15V2Z" fill="#0071B3"/>
<path fill-rule="evenodd" clip-rule="evenodd" d="M4.25 3.5H18.75C19.1642 3.5 19.5 3.83579 19.5 4.25V16.75C19.5 17.1642 19.1642 17.5 18.75 17.5H4.25C3.83579 17.5 3.5 17.1642 3.5 16.75V4.25C3.5 3.83579 3.83579 3.5 4.25 3.5ZM18 5H5V16H18V5Z" fill="#0071B3"/>
</svg>
