<svg width="24" height="24" viewBox="0 0 24 24" fill="none" xmlns="http://www.w3.org/2000/svg">
<path d="M19.5001 4.92992C18.5606 4.02112 17.3072 3.50902 16.0001 3.49992C14.9176 3.49627 13.8638 3.84754 13.0001 4.49992C12.6215 4.7847 12.2848 5.12133 12.0001 5.49992C11.7153 5.12133 11.3787 4.7847 11.0001 4.49992C10.1376 3.8438 9.08376 3.48853 8.00006 3.48853C6.91637 3.48853 5.86256 3.8438 5.00006 4.49992C4.37618 4.96292 3.87004 5.56628 3.52259 6.26118C3.17514 6.95608 2.99613 7.72301 3.00006 8.49992C3.00006 15.9999 11.0001 20.4999 12.0001 20.4999C13.0001 20.4999 21.0001 15.9999 21.0001 8.49992C21 7.83501 20.8673 7.17681 20.6097 6.56381C20.3521 5.95082 19.9749 5.39535 19.5001 4.92992ZM12.0001 18.9299C9.31722 17.6026 7.09973 15.4931 5.64006 12.8799C4.90844 11.5348 4.51706 10.0311 4.50006 8.49992C4.50039 7.69655 4.77707 6.91774 5.28367 6.29424C5.79027 5.67073 6.49595 5.24049 7.28225 5.07572C8.06854 4.91096 8.88758 5.02171 9.60188 5.38938C10.3162 5.75705 10.8822 6.35926 11.2051 7.09492C11.2351 7.16492 11.2601 7.23992 11.2901 7.31492C11.3403 7.46199 11.4353 7.58967 11.5617 7.68008C11.6881 7.77048 11.8396 7.81909 11.9951 7.81909C12.1505 7.81909 12.302 7.77048 12.4284 7.68008C12.5548 7.58967 12.6498 7.46199 12.7001 7.31492C12.7251 7.23992 12.7551 7.16492 12.7851 7.09492C13.1042 6.35313 13.67 5.74452 14.3866 5.37225C15.1032 4.99998 15.9265 4.88696 16.7169 5.05234C17.5073 5.21772 18.2162 5.65133 18.7235 6.27967C19.2307 6.908 19.5051 7.69241 19.5001 8.49992C19.4872 10.0395 19.0956 11.5523 18.3601 12.9049C16.9004 15.5181 14.6829 17.6276 12.0001 18.9549V18.9299Z" fill="#0071B3"/>
</svg>
