<svg width="20" height="21" viewBox="0 0 20 21" fill="none" xmlns="http://www.w3.org/2000/svg">
<path d="M10.4192 0.742256L19.0252 10.3003C19.3022 10.6083 19.2772 11.0823 18.9697 11.3598C18.6617 11.6368 18.1877 11.6118 17.9107 11.3043L9.85818 2.36076L1.80718 11.3018C1.53018 11.6098 1.05618 11.6343 0.748182 11.3573C0.440182 11.0803 0.415182 10.6058 0.692182 10.2983L9.29868 0.740256C9.30645 0.731376 9.31607 0.725422 9.32566 0.719488C9.33334 0.714731 9.34101 0.709986 9.34768 0.703756C9.36002 0.692364 9.37337 0.683174 9.38682 0.673907C9.39463 0.668531 9.40247 0.663129 9.41018 0.657256C9.46818 0.612756 9.52868 0.573756 9.59418 0.548756C9.61645 0.540218 9.63928 0.535539 9.66224 0.53083C9.67021 0.529196 9.6782 0.527559 9.68618 0.525756C9.74618 0.511256 9.80618 0.499756 9.86718 0.499756C9.90177 0.5006 9.93601 0.507138 9.97019 0.513665C9.97652 0.514874 9.98285 0.516083 9.98918 0.517256C10.0392 0.526256 10.0892 0.535256 10.1372 0.554256C10.1867 0.574256 10.2322 0.605756 10.2772 0.637256C10.2842 0.642058 10.2913 0.646756 10.2984 0.651448C10.326 0.669714 10.3534 0.687886 10.3777 0.711756C10.3834 0.717247 10.3901 0.721272 10.3968 0.725317C10.4047 0.730111 10.4127 0.734933 10.4192 0.742256Z" fill="white"/>
<path d="M4.35893 18.5483H15.3589V9.96881L16.8589 11.6348V19.2983C16.8589 19.7118 16.5239 20.0473 16.1104 20.0483H3.60893C3.19443 20.0483 2.85893 19.7128 2.85893 19.2983V11.6353L4.35893 9.96931V18.5483Z" fill="white"/>
</svg>
