<svg width="14" height="21" viewBox="0 0 14 21" fill="none" xmlns="http://www.w3.org/2000/svg">
<path fill-rule="evenodd" clip-rule="evenodd" d="M3.913 7.25C3.913 5.5935 5.256 4.25 6.913 4.25C8.57 4.25 9.913 5.5935 9.913 7.25C9.913 8.907 8.5695 10.25 6.913 10.25C5.256 10.25 3.913 8.907 3.913 7.25ZM8.413 7.25C8.413 6.423 7.74 5.75 6.913 5.75C6.086 5.75 5.413 6.423 5.413 7.25C5.413 8.077 6.086 8.75 6.913 8.75C7.74 8.75 8.413 8.077 8.413 7.25Z" fill="#F7A100"/>
<path fill-rule="evenodd" clip-rule="evenodd" d="M6.363 19.853C6.505 20.006 6.7045 20.093 6.913 20.093C7.1215 20.093 7.321 20.006 7.463 19.853C7.723 19.5725 13.826 12.926 13.826 7.413C13.826 3.601 10.725 0.5 6.913 0.5C3.101 0.5 0 3.601 0 7.413C0 12.926 6.103 19.5725 6.363 19.853ZM1.5 7.413C1.5 4.428 3.928 2 6.913 2C9.8975 2 12.326 4.428 12.326 7.413C12.326 11.434 8.3895 16.46 6.913 18.2035C5.4365 16.46 1.5 11.434 1.5 7.413Z" fill="#F7A100"/>
</svg>
