<svg width="68" height="68" viewBox="0 0 68 68" fill="none" xmlns="http://www.w3.org/2000/svg">
<path fill-rule="evenodd" clip-rule="evenodd" d="M21.547 44.2112H30.5355V8.82739H25.0422C24.3089 8.82739 23.6176 9.11413 23.0974 9.63319L15.6299 17.1007V38.5525C18.4541 39.2812 20.7015 41.4357 21.547 44.2112Z" fill="#E3E6E6"/>
<path fill-rule="evenodd" clip-rule="evenodd" d="M11.2715 0H3.96489C1.77529 0 0.000488281 1.7748 0.000488281 3.9644V13.5524L11.2715 13.5354V0Z" fill="#E3E6E6"/>
<path fill-rule="evenodd" clip-rule="evenodd" d="M9.41357 46.7762C9.41357 49.0474 11.2552 50.8868 13.5253 50.8845C15.7976 50.8834 17.6382 49.0406 17.6382 46.7682C17.6382 44.497 15.7976 42.6576 13.5253 42.6599C11.2552 42.6622 9.41357 44.505 9.41357 46.7762Z" fill="#E3E6E6"/>
<mask id="mask0_3596_227" style="mask-type:luminance" maskUnits="userSpaceOnUse" x="0" y="0" width="68" height="68">
<path fill-rule="evenodd" clip-rule="evenodd" d="M0 68H68V0H0V68Z" fill="white"/>
</mask>
<g mask="url(#mask0_3596_227)">
<path fill-rule="evenodd" clip-rule="evenodd" d="M35.8032 44.2113H54.4307V0H35.8032V44.2113Z" fill="#E3E6E6"/>
<path fill-rule="evenodd" clip-rule="evenodd" d="M20.2131 6.74738C21.504 5.45764 23.2187 4.74705 25.0434 4.74705H30.5355V-0.000488281H15.6299V11.3306L20.2131 6.74738Z" fill="#E3E6E6"/>
<path fill-rule="evenodd" clip-rule="evenodd" d="M11.2715 38.5953V17.5073L0.000488281 17.5243V44.2109H5.50962C6.34262 41.4909 8.52315 39.3648 11.2715 38.5953Z" fill="#E3E6E6"/>
<path fill-rule="evenodd" clip-rule="evenodd" d="M38.1559 67.8368V64.642C38.1559 64.0322 37.9145 63.4474 37.4827 63.0168L32.0201 57.5541C31.0205 56.5534 30.4583 55.1968 30.4583 53.7824V49.1448L21.5345 49.147C20.6788 51.9022 18.4382 54.0408 15.6298 54.7695V67.8436L11.271 67.8448V54.7355C8.5306 53.9739 6.35233 51.8614 5.5148 49.1527L0 49.1538V63.8826C0 66.0722 1.77593 67.8482 3.96553 67.847L42.7629 67.8357L38.1559 67.8368Z" fill="#E3E6E6"/>
<path fill-rule="evenodd" clip-rule="evenodd" d="M63.9895 0H58.9009V25.3402H67.9539V3.9644C67.9539 1.7748 66.1791 0 63.9895 0Z" fill="#E3E6E6"/>
<path fill-rule="evenodd" clip-rule="evenodd" d="M58.9016 44.2115H67.9547V29.8215H58.9016V44.2115Z" fill="#D7E37D"/>
<path fill-rule="evenodd" clip-rule="evenodd" d="M35.8379 52.8119C35.8379 53.4216 36.0793 54.0064 36.5111 54.4371L41.9738 59.8997C42.9734 60.9005 43.5355 62.2571 43.5355 63.6715V67.8353L63.991 67.8285C66.1795 67.8285 67.9543 66.0537 67.9543 63.8641V49.1331L35.8379 49.1433V52.8119Z" fill="#D5EBF4"/>
<path fill-rule="evenodd" clip-rule="evenodd" d="M30.5557 44.3115H21.5613C20.7164 41.5297 18.4664 39.3703 15.6402 38.6399V17.1395L23.1139 9.65497C23.6333 9.13472 24.3251 8.84734 25.06 8.84734H30.5557V44.3115ZM13.5353 51.0009C11.2626 51.0032 9.41973 49.1596 9.41973 46.8821C9.41973 44.6057 11.2626 42.7587 13.5353 42.7565C15.8081 42.7542 17.6509 44.5978 17.6509 46.8741C17.6509 49.1516 15.8081 50.9986 13.5353 51.0009ZM68 29.8889V25.3975H58.9409V-0.000244141H54.4669V44.3115H35.827V-0.000244141H30.5558V4.75807H25.06C23.2341 4.75807 21.5182 5.47029 20.2265 6.76295L15.6402 11.3566V-0.000244141H11.2785V13.567L0 13.5829V17.5643L11.2785 17.5473V38.6831C8.52949 39.4544 6.34636 41.5854 5.51281 44.3115H0V49.2652L5.51848 49.2641C6.35771 51.9789 8.53629 54.0962 11.2785 54.8596V67.9998L15.6402 67.9975V54.8936C18.4505 54.1633 20.6926 52.0198 21.55 49.2584L30.4787 49.2561V53.9043C30.4787 55.3219 31.0412 56.6816 32.0426 57.6846L37.5077 63.1597C37.9398 63.5924 38.1814 64.1774 38.1814 64.7885V67.9907L43.5649 67.9895V63.8162C43.5649 62.3986 43.0024 61.0389 42.001 60.0359L36.5347 54.5608C36.1037 54.1292 35.8622 53.5431 35.8622 52.9319V49.255L68 49.2448V44.3115H58.9409V29.8889H68Z" fill="white"/>
<path fill-rule="evenodd" clip-rule="evenodd" d="M37.7077 46.7872C37.7077 47.2972 36.0893 47.7109 34.0947 47.7109C32.0977 47.7109 30.4805 47.2972 30.4805 46.7872C30.4805 46.2772 32.0977 45.8635 34.0947 45.8635C36.0893 45.8635 37.7077 46.2772 37.7077 46.7872Z" fill="#EDEFEF"/>
<path fill-rule="evenodd" clip-rule="evenodd" d="M44.4648 16.4893H23.6024C22.4521 16.4893 21.5205 17.4209 21.5205 18.5712V39.4336C21.5205 40.5828 22.4521 41.5155 23.6024 41.5155H30.5101L33.314 45.8811C33.6438 46.3945 34.3974 46.3877 34.7182 45.8687L37.4053 41.5155H44.4648C45.6152 41.5155 46.5468 40.5828 46.5468 39.4336V18.5712C46.5468 17.4209 45.6152 16.4893 44.4648 16.4893Z" fill="#F7A100"/>
<path fill-rule="evenodd" clip-rule="evenodd" d="M29.7066 34.57H38.5863V28.5837C38.5863 28.1111 38.9694 27.7281 39.442 27.7281H39.5995L34.1731 22.2257L28.8884 27.7292C29.344 27.7485 29.7066 28.1247 29.7066 28.5837V34.57ZM39.442 36.2813H28.851C28.3784 36.2813 27.9953 35.8983 27.9953 35.4257V29.4394H26.8812C26.539 29.4394 26.2284 29.2343 26.0947 28.9192C25.9598 28.6041 26.0267 28.2392 26.2647 27.991L33.5475 20.4056C33.7073 20.239 33.9283 20.1449 34.1595 20.1438H34.1652C34.3941 20.1438 34.6128 20.2356 34.7738 20.3977L42.2549 27.9831C42.4974 28.229 42.5677 28.5962 42.434 28.9147C42.3014 29.2331 41.9897 29.4394 41.6452 29.4394H40.2976V35.4257C40.2976 35.8983 39.9146 36.2813 39.442 36.2813Z" fill="white"/>
</g>
</svg>
