<svg width="18" height="18" viewBox="0 0 18 18" fill="none" xmlns="http://www.w3.org/2000/svg">
<path fill-rule="evenodd" clip-rule="evenodd" d="M18 0.75C17.9962 0.664118 17.9776 0.579536 17.945 0.5C17.8688 0.313895 17.7211 0.166175 17.535 0.09C17.4471 0.0410567 17.3501 0.0104407 17.25 0H12.75C12.3358 0 12 0.335786 12 0.75C12 1.16421 12.3358 1.5 12.75 1.5H15.44L10.22 6.72C9.94464 7.01551 9.95277 7.47601 10.2384 7.76162C10.524 8.04723 10.9845 8.05536 11.28 7.78L16.5 2.56V5.25C16.5 5.66421 16.8358 6 17.25 6C17.6642 6 18 5.66421 18 5.25V0.75ZM6.72 10.22L1.5 15.44V12.75C1.5 12.3358 1.16421 12 0.75 12C0.335786 12 0 12.3358 0 12.75V17.25C0.000120797 17.346 0.0187966 17.4411 0.055 17.53C0.130205 17.7167 0.278251 17.8648 0.465 17.94C0.555127 17.9786 0.651978 17.9989 0.75 18H5.25C5.66421 18 6 17.6642 6 17.25C6 16.8358 5.66421 16.5 5.25 16.5H2.56L7.78 11.28C8.05536 10.9845 8.04723 10.524 7.76162 10.2384C7.47601 9.95277 7.01551 9.94464 6.72 10.22Z" fill="#0071B3"/>
</svg>
