<svg width="20" height="20" viewBox="0 0 20 20" fill="none" xmlns="http://www.w3.org/2000/svg">
<path fill-rule="evenodd" clip-rule="evenodd" d="M19.5 0.75C19.5 0.335786 19.1642 0 18.75 0H1.25C0.835786 0 0.5 0.335786 0.5 0.75V19.25C0.5 19.6642 0.835786 20 1.25 20H18.75C19.1642 20 19.5 19.6642 19.5 19.25V0.75ZM2 5.25H8.5V7.75C8.5 8.16421 8.83579 8.5 9.25 8.5H13V18.5H2V5.25ZM14.5 7.75C14.5 7.33579 14.1642 7 13.75 7H10V4.5C10 4.08579 9.66421 3.75 9.25 3.75H2V1.5H18V18.5H14.5V7.75Z" fill="#999999"/>
</svg>
