<svg width="24" height="24" viewBox="0 0 24 24" fill="none" xmlns="http://www.w3.org/2000/svg">
<path fill-rule="evenodd" clip-rule="evenodd" d="M21 20.44V15.6L16 14.6L14.185 15.65C11.295 14.15 9.915 12.765 8.385 9.88L9.5 8L8.5 3H3.555C3.27886 3 3.055 3.22386 3.055 3.5C3 3.93 3 4.36 3 4.79C3 13.7425 10.2575 21 19.21 21C19.645 21 20.07 21 20.495 20.94C20.7711 20.94 20.995 20.7161 20.995 20.44H21ZM19.5 19V19.5H19.21C11.0893 19.4917 4.50827 12.9107 4.5 4.79C4.5 4.695 4.5 4.6 4.5 4.5H7.265L7.91 7.73L7.09 9.11C6.82249 9.56029 6.80923 10.1175 7.055 10.58C8.72 13.71 10.34 15.325 13.5 17C13.9564 17.2399 14.5039 17.2285 14.95 16.97L16.275 16.205L19.5 16.83V19Z" fill="#0071B3"/>
</svg>
