<svg width="24" height="24" viewBox="0 0 24 24" fill="none" xmlns="http://www.w3.org/2000/svg">
<path fill-rule="evenodd" clip-rule="evenodd" d="M18.0003 15.8954C17.0526 15.8962 16.1609 16.3448 15.5953 17.1054L8.84035 13.2054C9.03815 12.6271 9.05212 12.0019 8.88035 11.4154L15.7303 7.46038C16.7173 8.6041 18.4006 8.83559 19.6596 8.00071C20.9186 7.16583 21.3605 5.52504 20.6909 4.17086C20.0214 2.81668 18.4494 2.17158 17.0216 2.6651C15.5938 3.15862 14.7557 4.63679 15.0653 6.11538L8.12035 10.1154C6.9612 8.95729 5.08728 8.94348 3.91118 10.0843C2.73508 11.2252 2.69192 13.0987 3.81422 14.2925C4.93652 15.4863 6.80909 15.5588 8.02035 14.4554L15.0203 18.5004C14.8559 19.7385 15.4757 20.9489 16.5764 21.5392C17.6771 22.1295 19.0283 21.976 19.9687 21.154C20.909 20.332 21.2417 19.0134 20.8039 17.8437C20.366 16.674 19.2493 15.8979 18.0003 15.8954ZM18.0003 4.00538C18.8288 4.00538 19.5003 4.67695 19.5003 5.50538C19.5003 6.3338 18.8288 7.00538 18.0003 7.00538C17.1719 7.00538 16.5003 6.3338 16.5003 5.50538C16.5003 4.67695 17.1719 4.00538 18.0003 4.00538ZM6.00035 13.7454C5.17192 13.7454 4.50035 13.0738 4.50035 12.2454C4.50035 11.4169 5.17192 10.7454 6.00035 10.7454C6.82878 10.7454 7.50035 11.4169 7.50035 12.2454C7.50035 13.0738 6.82878 13.7454 6.00035 13.7454ZM18.0003 20.3954C17.1719 20.3954 16.5003 19.7238 16.5003 18.8954C16.5003 18.0669 17.1719 17.3954 18.0003 17.3954C18.8288 17.3954 19.5003 18.0669 19.5003 18.8954C19.5003 19.7238 18.8288 20.3954 18.0003 20.3954Z" fill="#0071B3"/>
</svg>
