<svg width="34" height="26" viewBox="0 0 34 26" fill="none" xmlns="http://www.w3.org/2000/svg">
<path fill-rule="evenodd" clip-rule="evenodd" d="M32.375 8.5H25.715L17.795 0.580002C17.5838 0.369656 17.2981 0.251081 17 0.250002C16.7016 0.249435 16.4153 0.368261 16.205 0.580002L8.285 8.5H1.625C1.00368 8.5 0.5 9.00368 0.5 9.625C0.5 10.2463 1.00368 10.75 1.625 10.75H2.5325L5 24.82C5.05632 25.109 5.22663 25.3631 5.4725 25.525C5.52498 25.5594 5.58016 25.5895 5.6375 25.615H5.69L5.84 25.6675H28.25L28.355 25.6075L28.4375 25.5625L28.535 25.4725L28.6025 25.42L28.6925 25.315L28.7375 25.255C28.7619 25.2174 28.7821 25.1771 28.7975 25.135C28.8144 25.1125 28.8271 25.0871 28.835 25.06C28.8425 25.0204 28.8425 24.9796 28.835 24.94C28.8382 24.9101 28.8382 24.8799 28.835 24.85L31.4675 10.75H32.375C32.9963 10.75 33.5 10.2463 33.5 9.625C33.5 9.00368 32.9963 8.5 32.375 8.5ZM17 2.965L22.535 8.5H11.465L17 2.965ZM26.93 23.5H7.0625L4.8125 10.75H29.18L26.93 23.5ZM9.5 16H24.5C25.1213 16 25.625 15.4963 25.625 14.875C25.625 14.2537 25.1213 13.75 24.5 13.75H9.5C8.87868 13.75 8.375 14.2537 8.375 14.875C8.375 15.4963 8.87868 16 9.5 16ZM23.375 18.25H10.625C10.0037 18.25 9.5 18.7537 9.5 19.375C9.5 19.9963 10.0037 20.5 10.625 20.5H23.375C23.9963 20.5 24.5 19.9963 24.5 19.375C24.5 18.7537 23.9963 18.25 23.375 18.25Z" fill="#0071B3"/>
</svg>
