<svg width="87" height="76" viewBox="0 0 87 76" fill="none" xmlns="http://www.w3.org/2000/svg">
<path fill-rule="evenodd" clip-rule="evenodd" d="M64.5977 8.91501H69.5552V14.345H64.5977V8.91501Z" fill="#00A8E8"/>
<path fill-rule="evenodd" clip-rule="evenodd" d="M68.8726 8.91501H73.1701V14.345H68.8726V8.91501Z" fill="#84D0F0"/>
<rect x="67.4888" y="8" width="16.7475" height="4.58625" rx="2.29312" fill="#84D0F0"/>
<path fill-rule="evenodd" clip-rule="evenodd" d="M86.959 67.9625H59.929L59.929 19.3625C59.929 16.5914 62.1754 14.345 64.9465 14.345H81.9415C84.7126 14.345 86.959 16.5914 86.959 19.3625V67.9625H86.959Z" fill="#84D0F0"/>
<path fill-rule="evenodd" clip-rule="evenodd" d="M76.8149 67.9625H49.7849L49.7849 19.3625C49.7849 16.5914 52.0313 14.345 54.8024 14.345H71.7974C74.5685 14.345 76.8149 16.5914 76.8149 19.3625V67.9625H76.8149Z" fill="#00A8E8"/>
<path fill-rule="evenodd" clip-rule="evenodd" d="M62.2085 44.7087C61.4007 44.7097 60.6256 44.3892 60.0543 43.818C59.483 43.2467 59.1625 42.4716 59.1635 41.6637C59.1635 40.8522 59.4874 40.0743 60.0633 39.5026C60.6393 38.9309 61.4196 38.6127 62.231 38.6187C63.9113 38.6208 65.2723 39.9835 65.2723 41.6637C65.2733 42.4749 64.9503 43.2528 64.3749 43.8246C63.7996 44.3965 63.0197 44.7147 62.2085 44.7087ZM71.1711 44.7087C70.3632 44.7097 69.5881 44.3892 69.0168 43.818C68.4455 43.2467 68.1251 42.4716 68.1261 41.6637C68.1261 40.8562 68.4469 40.0816 69.0179 39.5106C69.589 38.9395 70.3635 38.6187 71.1711 38.6187C71.9809 38.6157 72.7587 38.9351 73.3328 39.5064C73.9069 40.0776 74.2301 40.8539 74.2311 41.6637C74.2311 42.4739 73.9082 43.2507 73.3339 43.8222C72.7596 44.3937 71.9812 44.7127 71.1711 44.7087ZM51.0768 43.8181C51.6481 44.3894 52.4232 44.7099 53.231 44.7089C54.0389 44.7099 54.814 44.3894 55.3853 43.8181C55.9565 43.2468 56.277 42.4718 56.276 41.6639C56.276 40.8563 55.9552 40.0818 55.3842 39.5107C54.8131 38.9397 54.0386 38.6189 53.231 38.6189C52.4235 38.6189 51.6489 38.9397 51.0779 39.5107C50.5068 40.0818 50.186 40.8563 50.186 41.6639C50.185 42.4718 50.5055 43.2468 51.0768 43.8181Z" fill="#84D0F0"/>
<rect x="51.0562" y="47.5738" width="23.4075" height="5.93625" rx="2.96812" fill="#84D0F0"/>
<rect x="67.1626" y="39.5825" width="6.00751" height="4.16625" rx="2.08312" fill="#F97D00"/>
<rect x="58.0874" y="39.5825" width="6.0075" height="4.16625" rx="2.08312" fill="#F8B000"/>
<rect x="49.0127" y="39.5825" width="6.0075" height="4.16625" rx="2.08312" fill="#FDCC2E"/>
<path fill-rule="evenodd" clip-rule="evenodd" d="M70.736 51.5262H54.356C53.8055 51.4932 53.376 51.0371 53.376 50.4856C53.376 49.9341 53.8055 49.4781 54.356 49.445H70.751C71.1377 49.4218 71.5054 49.6149 71.7057 49.9464C71.9061 50.278 71.9061 50.6933 71.7057 51.0248C71.5054 51.3564 71.1377 51.5495 70.751 51.5262H70.736Z" fill="#55241A"/>
<path fill-rule="evenodd" clip-rule="evenodd" d="M52.2861 18.6125H74.1149V34.7H52.2861V18.6125Z" fill="#53241B"/>
<path fill-rule="evenodd" clip-rule="evenodd" d="M66.7574 64.085C66.7595 66.2335 65.0283 67.9815 62.8799 68H47.8799C50.0283 67.9815 51.7595 66.2335 51.7574 64.085V54.4213C51.7564 53.375 52.1726 52.3716 52.9137 51.6332C53.6549 50.8949 54.6599 50.4825 55.7061 50.4875H70.7061C69.6625 50.4865 68.6614 50.9006 67.9235 51.6386C67.1855 52.3765 66.7714 53.3777 66.7724 54.4213L66.7574 64.085Z" fill="white"/>
<path fill-rule="evenodd" clip-rule="evenodd" d="M30.3562 64.085C30.3561 66.2192 32.0808 67.9522 34.2149 67.9625H49.2149C47.0734 67.9625 45.3374 66.2265 45.3374 64.085V31.7975C45.3345 30.7535 44.9166 29.7536 44.176 29.0179C43.4353 28.2822 42.4326 27.871 41.3887 27.875H26.3887C27.4359 27.866 28.4434 28.2749 29.1881 29.0112C29.9328 29.7475 30.3532 30.7503 30.3562 31.7975V64.085Z" fill="#84D0F0"/>
<ellipse cx="22.2751" cy="32.4012" rx="1.59" ry="1.60125" fill="#FFB70A"/>
<path fill-rule="evenodd" clip-rule="evenodd" d="M37.3463 46.3775V31.7225C37.3453 30.6789 37.7595 29.6778 38.4974 28.9398C39.2353 28.2019 40.2365 27.7878 41.2801 27.7888H26.2801C24.1134 27.797 22.3613 29.5558 22.3613 31.7225V46.3775H37.3463Z" fill="white"/>
<path fill-rule="evenodd" clip-rule="evenodd" d="M24.7314 33.125H34.6202H34.6314C34.8275 33.1417 35.0163 33.0465 35.1195 32.8789C35.2227 32.7113 35.2227 32.4999 35.1195 32.3324C35.0163 32.1648 34.8275 32.0696 34.6314 32.0863H24.7314C24.5353 32.0696 24.3466 32.1648 24.2434 32.3324C24.1402 32.4999 24.1402 32.7113 24.2434 32.8789C24.3466 33.0465 24.5353 33.1417 24.7314 33.125ZM24.7502 36.125H31.9464C32.1425 36.1417 32.3313 36.0465 32.4345 35.8789C32.5377 35.7113 32.5377 35.4999 32.4345 35.3324C32.3313 35.1648 32.1425 35.0696 31.9464 35.0863H24.7502C24.5541 35.0696 24.3653 35.1648 24.2621 35.3324C24.159 35.4999 24.159 35.7113 24.2621 35.8789C24.3653 36.0465 24.5541 36.1417 24.7502 36.125ZM34.6202 39.17H24.7314C24.5353 39.1867 24.3466 39.0915 24.2434 38.9239C24.1402 38.7563 24.1402 38.5449 24.2434 38.3774C24.3466 38.2098 24.5353 38.1146 24.7314 38.1313H34.6314C34.8275 38.1146 35.0163 38.2098 35.1195 38.3774C35.2227 38.5449 35.2227 38.7563 35.1195 38.9239C35.0163 39.0915 34.8275 39.1867 34.6314 39.17H34.6202ZM24.7502 42.1588H33.3002C33.5881 42.1588 33.8214 41.9254 33.8214 41.6375C33.8214 41.3496 33.5881 41.1163 33.3002 41.1163H24.7502C24.4623 41.1163 24.2289 41.3496 24.2289 41.6375C24.2289 41.9254 24.4623 42.1588 24.7502 42.1588Z" fill="#0071B3"/>
<path fill-rule="evenodd" clip-rule="evenodd" d="M13.6052 31.5988L17.9364 35.9075L20.6064 32.375L22.3764 33.9988L19.5302 38.4988C19.2814 38.8932 18.8772 39.1639 18.4178 39.244C17.9583 39.324 17.4865 39.2058 17.1189 38.9188L12.8364 35.6038L13.6052 31.5988Z" fill="#53241B"/>
<path fill-rule="evenodd" clip-rule="evenodd" d="M14.8913 66.8787L14.4825 46.3287L10.7812 45.8975L12.5175 66.8825L14.8913 66.8787Z" fill="#53241B"/>
<path fill-rule="evenodd" clip-rule="evenodd" d="M12.5176 66.785H16.5188C16.676 66.785 16.8267 66.8474 16.9378 66.9585C17.0489 67.0697 17.1113 67.2204 17.1113 67.3775C17.1113 67.7047 16.8461 67.97 16.5188 67.97H12.5176V66.7775V66.785Z" fill="#F97D00"/>
<path fill-rule="evenodd" clip-rule="evenodd" d="M6.70873 66.8788L6.38623 45.5675L10.3087 45.8975L8.96623 66.8825L6.70873 66.8788Z" fill="#53241B"/>
<rect x="9.68994" y="67.9738" width="3.7575" height="1.1925" rx="0.596251" transform="rotate(-180 9.68994 67.9738)" fill="#F97D00"/>
<path fill-rule="evenodd" clip-rule="evenodd" d="M14.4824 46.3287L8.03237 46.8837L4.76611 47.885V34.4712C4.76611 32.4312 6.07861 30.7775 8.11861 30.7775H11.5611C13.1745 30.7775 14.4824 32.0854 14.4824 33.6987V46.3287Z" fill="#53241B"/>
<path fill-rule="evenodd" clip-rule="evenodd" d="M12.8214 34.625L12.8027 41.0375H12.8814L13.4814 37.625C13.6788 36.5126 13.6366 35.371 13.3577 34.2762L12.5064 30.9425C12.3125 30.8782 12.1128 30.8329 11.9102 30.8075L12.8214 34.625Z" fill="#6D433A"/>
<path fill-rule="evenodd" clip-rule="evenodd" d="M12.8322 44.375V34.625L11.9135 30.8C11.7966 30.7849 11.6788 30.7774 11.561 30.7775H8.23096L9.26971 34.8387V44.375H12.8322Z" fill="#84D0F0"/>
<path fill-rule="evenodd" clip-rule="evenodd" d="M11.9101 30.8L10.9538 32.1913L8.2576 30.7775L8.1001 26.7838L11.8614 26.66L11.9101 30.8Z" fill="#FFB70A"/>
<ellipse cx="15.1841" cy="19.0142" rx="1.875" ry="1.89" transform="rotate(-0.729999 15.1841 19.0142)" fill="#F97D00"/>
<path fill-rule="evenodd" clip-rule="evenodd" d="M15.6264 18.125C15.4901 18.1476 15.3563 18.0729 15.3039 17.945C14.8389 16.8613 13.1964 16.1075 12.1314 15.8525C10.3389 15.425 8.68891 16.3288 7.65766 17.7763C7.59019 17.8721 7.47259 17.9191 7.35766 17.8963C6.80644 18.6493 6.52506 19.5661 6.55891 20.4988C6.58516 21.3163 6.71641 22.1038 6.69391 22.925C6.69249 23.0043 6.65724 23.0792 6.59705 23.1308C6.53685 23.1824 6.45746 23.2057 6.37891 23.195L6.39766 24.6613C6.41842 26.4244 7.37822 28.0425 8.9155 28.906C10.4528 29.7696 12.334 29.7474 13.8505 28.8479C15.367 27.9484 16.2884 26.3081 16.2677 24.545L16.2189 20.42C16.2114 19.6182 16.008 18.8303 15.6264 18.125Z" fill="#FFB70A"/>
<path fill-rule="evenodd" clip-rule="evenodd" d="M15.2473 23.9937C15.2533 24.5162 14.9801 25.0023 14.5306 25.2687C14.0811 25.5352 13.5236 25.5416 13.0681 25.2856C12.6126 25.0296 12.3283 24.55 12.3223 24.0275L15.2473 23.9937Z" fill="white"/>
<path fill-rule="evenodd" clip-rule="evenodd" d="M11.2314 15.5C9.72282 15.5197 8.30756 16.2336 7.3951 17.435C7.3951 17.3863 7.3951 17.3375 7.37635 17.33C7.36692 17.2378 7.36692 17.1448 7.37635 17.0525C7.38175 16.8781 7.41596 16.7058 7.4776 16.5425C7.55635 16.3138 7.1926 16.22 7.1026 16.4488C6.99914 16.7355 6.96572 17.0428 7.0051 17.345C6.79358 17.2701 6.56894 17.2395 6.3451 17.255C6.1051 17.255 6.10885 17.63 6.3451 17.63C6.486 17.6206 6.62752 17.6319 6.7651 17.6638C6.8306 17.6793 6.8946 17.7007 6.95635 17.7275L7.0501 17.7688C7.05458 17.7945 7.06484 17.8188 7.0801 17.84V17.8588C6.58041 18.6589 6.32016 19.5854 6.3301 20.5288L6.3976 24.5C6.99948 24.7137 7.67047 24.5685 8.1301 24.125C9.04885 23.1913 9.0151 20.2588 9.0151 20.2588C9.0151 20.2588 12.8326 20.0788 13.7476 19.805C14.7117 19.454 15.5629 18.8489 16.2114 18.0538C15.4014 16.385 13.2001 15.4663 11.2314 15.5Z" fill="#F97D00"/>
<ellipse cx="14.3513" cy="16.9249" rx="2.22" ry="2.235" transform="rotate(-0.729999 14.3513 16.9249)" fill="#F97D00"/>
<path fill-rule="evenodd" clip-rule="evenodd" d="M5.20138 45.8975C5.45564 45.8975 5.69944 45.7962 5.87888 45.6161C6.05832 45.436 6.15862 45.1918 6.15763 44.9375V43.25C6.15862 42.9954 6.05843 42.7508 5.8791 42.5701C5.69977 42.3893 5.45598 42.2872 5.20138 42.2863C4.94677 42.2872 4.70298 42.3893 4.52365 42.5701C4.34432 42.7508 4.24413 42.9954 4.24512 43.25V44.9375C4.24413 45.1918 4.34443 45.436 4.52387 45.6161C4.70331 45.7962 4.94711 45.8975 5.20138 45.8975Z" fill="#FFB70A"/>
<path fill-rule="evenodd" clip-rule="evenodd" d="M4.04994 43.895L6.15744 42.0725L3.48744 38.1988L7.70994 33.9463L5.93244 31.5988L0.52869 37.1038C-0.155795 37.8291 -0.176901 38.9558 0.47994 39.7063L4.04994 43.895Z" fill="#53241B"/>
<path fill-rule="evenodd" clip-rule="evenodd" d="M10.9535 32.1912L10.3235 33.3575L8.55721 32.0525L8.23096 30.7775H8.26471L10.9535 32.1912ZM10.9535 32.1912L11.9097 33.2262L12.0447 31.3625L11.9097 30.8L10.9535 32.1912Z" fill="white"/>
<path fill-rule="evenodd" clip-rule="evenodd" d="M9.26994 34.8387L8.23119 30.7775L7.85619 35.6337C7.75573 36.9176 7.97609 38.2062 8.49744 39.3837L9.24744 41.0562L9.26994 34.8387Z" fill="#6D433A"/>
<path fill-rule="evenodd" clip-rule="evenodd" d="M53.1562 34.7H52.2862V18.6125H53.1562V34.7Z" fill="#6D433A"/>
<rect x="59.9326" y="8" width="12.5663" height="4.58625" rx="2.29312" fill="#00A8E8"/>
<rect x="73.9199" y="9.41376" width="8.63625" height="1.845" rx="0.9225" fill="#53241B"/>
<rect x="21.7651" y="30.8" width="2.2725" height="1.1775" rx="0.58875" fill="#FFB70A"/>
<path fill-rule="evenodd" clip-rule="evenodd" d="M72.4873 30.7513L71.9586 28.7525C71.8911 28.4979 71.6749 28.3105 71.4133 28.2799C71.1517 28.2492 70.898 28.3817 70.7736 28.6138C70.6471 28.8464 70.3986 28.986 70.1341 28.9733C69.8696 28.9605 69.6358 28.7975 69.5323 28.5538L69.0861 27.5C69.0061 27.3075 68.8219 27.1788 68.6136 27.1699C68.4053 27.1611 68.2108 27.2737 68.1148 27.4588L67.6761 28.2988C67.5387 28.5578 67.2629 28.713 66.9702 28.6961C66.6774 28.6791 66.4214 28.4932 66.3148 28.22L65.5086 25.595C65.428 25.3414 65.1854 25.1749 64.9198 25.1908C64.6541 25.2067 64.4332 25.4011 64.3836 25.6625L63.4761 29.2288C63.4224 29.4916 63.2054 29.69 62.9388 29.7199C62.6722 29.7498 62.4166 29.6045 62.3061 29.36L61.5148 27.44C61.436 27.2653 61.2621 27.153 61.0704 27.153C60.8788 27.153 60.7049 27.2653 60.6261 27.44L60.5361 27.6838C60.4172 27.9374 60.1527 28.0898 59.8737 28.0655C59.5947 28.0412 59.3605 27.8454 59.2873 27.575L58.5036 23.375C58.4244 23.0769 58.1513 22.8719 57.843 22.879C57.5347 22.8862 57.2714 23.1036 57.2061 23.405L55.7586 30.695C55.735 30.816 55.7668 30.9411 55.8452 31.0362C55.9236 31.1312 56.0404 31.1863 56.1636 31.1863L72.0823 31.2838C72.2148 31.2871 72.3408 31.2266 72.421 31.1211C72.5013 31.0156 72.5259 30.878 72.4873 30.7513Z" fill="#9EC300"/>
<ellipse cx="78.2924" cy="10.295" rx="0.506252" ry="0.50625" fill="#C0CE06"/>
<path fill-rule="evenodd" clip-rule="evenodd" d="M55.7511 20.9225H54.5248C54.3943 20.9225 54.2886 20.8167 54.2886 20.6863C54.2886 20.5552 54.3937 20.4483 54.5248 20.4463H55.7511C55.8836 20.4463 55.9911 20.5537 55.9911 20.6863C55.989 20.8173 55.8822 20.9225 55.7511 20.9225ZM55.7511 23.8138H54.5248C54.3937 23.8117 54.2886 23.7049 54.2886 23.5738C54.2886 23.4433 54.3943 23.3375 54.5248 23.3375H55.7511C55.8822 23.3375 55.989 23.4427 55.9911 23.5738C55.9911 23.7063 55.8836 23.8138 55.7511 23.8138ZM54.5248 26.96H55.7511C55.8836 26.96 55.9911 26.8526 55.9911 26.72C55.989 26.5889 55.8822 26.4837 55.7511 26.4838H54.5248C54.3943 26.4838 54.2886 26.5895 54.2886 26.72C54.2886 26.8511 54.3937 26.958 54.5248 26.96ZM55.7511 29.8475H54.5248C54.3943 29.8475 54.2886 29.7417 54.2886 29.6113C54.2886 29.4802 54.3937 29.3733 54.5248 29.3713H55.7511C55.8836 29.3713 55.9911 29.4787 55.9911 29.6113C55.989 29.7423 55.8822 29.8475 55.7511 29.8475ZM54.5248 32.8663H72.4986C72.6311 32.8663 72.7386 32.7588 72.7386 32.6263C72.7386 32.5629 72.7132 32.5023 72.6681 32.4579C72.6229 32.4134 72.5619 32.389 72.4986 32.39H54.5248C54.3943 32.39 54.2886 32.4958 54.2886 32.6263C54.2886 32.7574 54.3937 32.8642 54.5248 32.8663Z" fill="white"/>
<path fill-rule="evenodd" clip-rule="evenodd" d="M64.6014 53.27H55.0202C54.7504 53.2471 54.5431 53.0214 54.5431 52.7506C54.5431 52.4799 54.7504 52.2542 55.0202 52.2313H64.6014C64.8712 52.2542 65.0785 52.4799 65.0785 52.7506C65.0785 53.0214 64.8712 53.2471 64.6014 53.27ZM63.9189 56.135H54.3564C54.1603 56.1517 53.9716 56.0565 53.8684 55.8889C53.7652 55.7213 53.7652 55.5099 53.8684 55.3424C53.9716 55.1748 54.1603 55.0796 54.3564 55.0963H63.9189C64.115 55.0796 64.3038 55.1748 64.407 55.3424C64.5102 55.5099 64.5102 55.7213 64.407 55.8889C64.3038 56.0565 64.115 56.1517 63.9189 56.135ZM54.2814 59.4425H58.8564C59.0525 59.4592 59.2413 59.364 59.3445 59.1964C59.4477 59.0288 59.4477 58.8174 59.3445 58.6499C59.2413 58.4823 59.0525 58.3871 58.8564 58.4038H54.2814C54.0117 58.4267 53.8044 58.6524 53.8044 58.9231C53.8044 59.1939 54.0117 59.4196 54.2814 59.4425ZM58.9127 62.8138H54.3564C54.0686 62.8138 53.8352 62.5804 53.8352 62.2925C53.8352 62.0046 54.0686 61.7713 54.3564 61.7713H58.9277C59.2156 61.7713 59.4489 62.0046 59.4489 62.2925C59.4489 62.5804 59.2156 62.8138 58.9277 62.8138H58.9127ZM53.7227 66.245H63.3039C63.5737 66.2221 63.781 65.9964 63.781 65.7256C63.781 65.4549 63.5737 65.2292 63.3039 65.2063H53.7227C53.4529 65.2292 53.2456 65.4549 53.2456 65.7256C53.2456 65.9964 53.4529 66.2221 53.7227 66.245Z" fill="#E6F2F7"/>
<path fill-rule="evenodd" clip-rule="evenodd" d="M60.5063 58.5575H63.8214V62.6037H60.5063V58.5575Z" fill="#E6F2F7"/>
</svg>
