<?xml version="1.0" encoding="iso-8859-1"?>
<!-- Uploaded to: SVG Repo, www.svgrepo.com, Generator: SVG Repo Mixer Tools -->
<svg height="800px" width="800px" version="1.1" id="Layer_1" xmlns="http://www.w3.org/2000/svg" xmlns:xlink="http://www.w3.org/1999/xlink" 
	 viewBox="0 0 511.999 511.999" xml:space="preserve">
<polygon style="fill:#6DDAE1;" points="409.918,454.807 102.073,454.807 102.073,189.718 255.996,35.795 409.918,189.718 "/>
<g>
	<polygon style="fill:#4FC4D3;" points="102.073,378.795 102.073,454.807 409.918,454.807 409.918,353.701 161.932,412.05 	"/>
	<polygon style="fill:#4FC4D3;" points="101.36,189.718 255.283,35.795 285.212,65.724 101.36,249.576 	"/>
</g>
<path style="fill:#999999;" d="M476.342,225.909L271.118,20.684c-0.002-0.002-0.003-0.003-0.005-0.005
	c-4.076-4.075-9.386-6.146-14.725-6.242c-0.13-0.002-0.261-0.019-0.391-0.019c-0.13,0-0.261,0.016-0.391,0.019
	c-5.34,0.097-10.651,2.168-14.725,6.242c-0.002,0.002-0.003,0.003-0.005,0.005L35.649,225.909c-8.349,8.349-8.349,21.885,0,30.233
	c4.174,4.174,9.645,6.262,15.116,6.262s10.942-2.088,15.116-6.262L255.996,66.029l190.114,190.113
	c4.174,4.174,9.645,6.262,15.116,6.262c5.472,0,10.942-2.088,15.116-6.262C484.692,247.793,484.692,234.257,476.342,225.909z"/>
<path style="fill:#FF8C78;" d="M255.996,201.55c-36.904-24.603-73.808-8.315-73.808,25.654c0,49.205,73.808,80.149,73.808,80.149
	s73.808-30.944,73.808-80.149C329.804,193.234,292.9,176.947,255.996,201.55z"/>
<g>
	<path style="fill:#DF7A6E;" d="M287.048,201.55c6.487-4.325,12.97-7.36,19.257-9.285c-9.855-3.602-21.992-3.51-34.782,1.27
		C276.629,195.445,281.837,198.075,287.048,201.55z"/>
	<path style="fill:#DF7A6E;" d="M213.24,227.204c0-17.159,9.423-29.794,23.499-34.938c-29.477-9.02-54.551,6.94-54.551,34.938
		c0,49.205,73.808,80.149,73.808,80.149s6.446-2.703,15.526-7.78C249.872,287.47,213.24,261.87,213.24,227.204z"/>
</g>
<circle style="fill:#FFD6C4;" cx="294.472" cy="228.199" r="12.827"/>
<g>
	<path style="fill:#FFD791;" d="M435.572,369.294L307.303,343.64H204.688v27.792c0,17.711,14.356,32.067,32.067,32.067h96.202v0.421
		l-171.025,42.335L43.496,387.938c-13.088-5.427-28.096,0.784-33.523,13.871c-5.427,13.088,0.784,28.096,13.871,33.523
		l120.985,62.23h188.128l102.615-34.205h68.41v-94.064h-68.41V369.294z"/>
	<polygon style="fill:#FFD791;" points="332.957,403.92 300.114,412.05 332.957,412.05 	"/>
</g>
<g>
	<path style="fill:#F8BE73;" d="M205.331,377.845c2.972,14.637,15.911,25.654,31.425,25.654h96.202v-25.654H205.331z"/>
	<path style="fill:#F8BE73;" d="M427.021,437.704l-94.064,34.205H144.829L10.167,401.372c-0.064,0.146-0.134,0.29-0.195,0.438
		c-5.427,13.088,0.784,28.096,13.871,33.523l120.985,62.23h188.128l102.615-34.205h68.41v-25.387L427.021,437.704z"/>
</g>
<path d="M255.996,192.095c-20.359-11.939-42.086-13.766-58.949-4.743c-14.538,7.781-22.876,22.306-22.876,39.851
	c0,53.917,75.511,86.195,78.725,87.541c1.968,0.825,4.231,0.826,6.199,0c3.215-1.348,78.725-33.625,78.725-87.541
	c0-17.546-8.339-32.07-22.876-39.851C298.08,178.326,276.353,180.156,255.996,192.095z M255.99,298.554
	c-13.431-6.309-65.786-33.35-65.786-71.35c0-11.61,5.117-20.742,14.408-25.715c4.756-2.545,10.166-3.797,15.943-3.797
	c9.763,0,20.567,3.578,30.994,10.529c2.694,1.796,6.201,1.796,8.893,0c16.594-11.063,34.143-13.579,46.936-6.731
	c9.291,4.973,14.408,14.104,14.408,25.715C321.787,265.116,269.405,292.233,255.99,298.554z"/>
<path d="M503.982,361.277h-67.616l-18.431-3.687v-56.707c0-4.427-3.588-8.017-8.017-8.017c-4.428,0-8.017,3.589-8.017,8.017v53.5
	l-93.026-18.605c-0.517-0.104-1.044-0.156-1.572-0.156H204.688c-4.427,0-8.017,3.589-8.017,8.017v27.792
	c0,22.103,17.981,40.084,40.084,40.084h32.153l-106.061,26.254l-52.757-25.978v-188.52L255.996,77.366l145.906,145.906v34.856
	c0,4.427,3.588,8.017,8.017,8.017c4.428,0,8.017-3.589,8.017-8.017v-18.821l22.506,22.506c9.25,9.247,23.991,11.267,35.361,4.755
	c10.262-5.878,16.077-17.628,14.561-29.345c-0.828-6.398-3.788-12.419-8.35-16.982L276.787,15.015
	c-5.572-5.175-12.528-8.448-20.202-8.593c-7.911-0.15-15.893,2.932-21.426,8.639L104.955,145.265c-3.131,3.131-3.131,8.207,0,11.337
	c3.131,3.131,8.207,3.131,11.337,0l130.251-130.25c0.015-0.015,0.03-0.03,0.045-0.045c2.445-2.424,5.696-3.794,9.178-3.857
	c0.159-0.01,0.319-0.01,0.477,0c3.485,0.064,6.752,1.447,9.201,3.895c0.003,0.003,0.007,0.007,0.006,0.006l205.225,205.225
	c5.151,5.15,5.151,13.746,0.001,18.895c-5.151,5.15-13.744,5.152-18.897,0L261.665,60.36c-3.132-3.131-8.207-3.13-11.338,0
	L60.214,250.473c-5.151,5.151-13.746,5.15-18.896,0c-5.15-5.15-5.151-13.745,0-18.896l44.742-44.742
	c3.131-3.131,3.131-8.207,0-11.337c-3.131-3.131-8.207-3.131-11.337,0L29.981,220.24c-8.08,8.08-10.733,20.465-6.717,31.16
	c4.434,11.807,16.298,19.567,28.883,18.989c7.285-0.335,14.251-3.423,19.405-8.578l22.506-22.506v164.592
	c0,0-47.331-23.299-47.49-23.365c-8.308-3.444-17.46-3.448-25.77-0.009c-8.311,3.439-14.785,9.908-18.229,18.216
	c-7.065,17.042,0.955,36.64,17.883,43.864l120.713,62.09c1.135,0.584,2.391,0.888,3.667,0.888h188.128
	c0.862,0,1.718-0.139,2.535-0.412l34.205-11.402c4.2-1.4,6.47-5.94,5.07-10.141c-1.401-4.201-5.94-6.471-10.141-5.071l-32.97,10.991
	H146.771c0,0-119.653-61.535-119.855-61.618c-8.983-3.725-13.262-14.065-9.537-23.048c3.694-8.911,13.897-13.194,22.83-9.626
	l118.183,58.192c1.695,0.835,3.632,1.043,5.467,0.59l171.025-42.335c3.579-0.886,6.091-4.097,6.091-7.782V403.5
	c0-4.427-3.588-8.017-8.017-8.017h-96.202c-13.262,0-24.05-10.788-24.05-24.05v-19.775h93.804L434,377.156
	c0.517,0.104,1.044,0.156,1.572,0.156h60.393v78.03h-60.393c-0.862,0-1.718,0.139-2.535,0.412l-25.653,8.551
	c-4.201,1.4-6.47,5.941-5.07,10.141c1.4,4.201,5.938,6.47,10.141,5.071l24.418-8.14h67.109c4.428,0,8.017-3.589,8.017-8.017v-94.064
	C511.999,364.867,508.411,361.277,503.982,361.277z"/>
</svg>