<?xml version="1.0" encoding="UTF-8"?>
<svg width="48px" height="48px" viewBox="0 0 48 48" version="1.1" xmlns="http://www.w3.org/2000/svg" xmlns:xlink="http://www.w3.org/1999/xlink">
    <title>Calculator</title>
    <g id="Calculator" stroke="none" stroke-width="1" fill="none" fill-rule="evenodd">
        <path d="M38.5,4 C39.3284271,4 40,4.67157288 40,5.5 L40,5.5 L40,42.5 C40,43.3284271 39.3284271,44 38.5,44 L38.5,44 L9.5,44 C8.67157288,44 8,43.3284271 8,42.5 L8,42.5 L8,5.5 L8.00686658,5.35553999 C8.07955132,4.59488808 8.72030388,4 9.5,4 L9.5,4 Z M37,7 L11,7 L11,41 L37,41 L37,7 Z M16,34 C17.1045695,34 18,34.8954305 18,36 C18,37.1045695 17.1045695,38 16,38 C14.8954305,38 14,37.1045695 14,36 C14,34.8954305 14.8954305,34 16,34 Z M24,34 C25.1045695,34 26,34.8954305 26,36 C26,37.1045695 25.1045695,38 24,38 C22.8954305,38 22,37.1045695 22,36 C22,34.8954305 22.8954305,34 24,34 Z M32,34 C33.1045695,34 34,34.8954305 34,36 C34,37.1045695 33.1045695,38 32,38 C30.8954305,38 30,37.1045695 30,36 C30,34.8954305 30.8954305,34 32,34 Z M16,27 C17.1045695,27 18,27.8954305 18,29 C18,30.1045695 17.1045695,31 16,31 C14.8954305,31 14,30.1045695 14,29 C14,27.8954305 14.8954305,27 16,27 Z M24,27 C25.1045695,27 26,27.8954305 26,29 C26,30.1045695 25.1045695,31 24,31 C22.8954305,31 22,30.1045695 22,29 C22,27.8954305 22.8954305,27 24,27 Z M32,27 C33.1045695,27 34,27.8954305 34,29 C34,30.1045695 33.1045695,31 32,31 C30.8954305,31 30,30.1045695 30,29 C30,27.8954305 30.8954305,27 32,27 Z M16,20 C17.1045695,20 18,20.8954305 18,22 C18,23.1045695 17.1045695,24 16,24 C14.8954305,24 14,23.1045695 14,22 C14,20.8954305 14.8954305,20 16,20 Z M24,20 C25.1045695,20 26,20.8954305 26,22 C26,23.1045695 25.1045695,24 24,24 C22.8954305,24 22,23.1045695 22,22 C22,20.8954305 22.8954305,20 24,20 Z M32,20 C33.1045695,20 34,20.8954305 34,22 C34,23.1045695 33.1045695,24 32,24 C30.8954305,24 30,23.1045695 30,22 C30,20.8954305 30.8954305,20 32,20 Z M32.5,10 C33.3284271,10 34,10.6715729 34,11.5 L34,14.5 C34,15.3284271 33.3284271,16 32.5,16 L15.5,16 C14.6715729,16 14,15.3284271 14,14.5 L14,11.5 C14,10.6715729 14.6715729,10 15.5,10 L32.5,10 Z" id="calculator" fill="#0071B3"></path>
    </g>
</svg>