<?xml version="1.0" encoding="UTF-8"?>
<svg width="48px" height="48px" viewBox="0 0 48 48" version="1.1" xmlns="http://www.w3.org/2000/svg" xmlns:xlink="http://www.w3.org/1999/xlink">
    <title>Bed</title>
    <g id="Bed" stroke="none" stroke-width="1" fill="none" fill-rule="evenodd">
        <path d="M11,20 L7.001,25.999 L40.999,25.999 L37,20 L40,20 L43.999,25.999 L44,26 L44,35.5 C44,36.3284271 43.3284271,37 42.5,37 L39,37 L39,38.5 C39,39.3284271 38.3284271,40 37.5,40 C36.6715729,40 36,39.3284271 36,38.5 L36,37 L12,37 L12,38.5 C12,39.3284271 11.3284271,40 10.5,40 C9.67157288,40 9,39.3284271 9,38.5 L9,37 L5.5,37 C4.67157288,37 4,36.3284271 4,35.5 L4,26 L4.001,25.999 L8,20 L11,20 Z M41,29 L7,29 L7,34 L41,34 L41,29 Z M38.5,8 C39.3284271,8 40,8.67157288 40,9.5 L40,20 L31,19.999 L31,21.5 C31,22.3284271 30.3284271,23 29.5,23 L18.5,23 C17.6715729,23 17,22.3284271 17,21.5 L17,19.999 L8,20 L8,9.5 C8,8.67157288 8.67157288,8 9.5,8 L38.5,8 Z M28,17 L20,17 L20,20 L28,20 L28,17 Z M37,11 L11,11 L11,16.999 L17,16.999 L17,15.5 C17,14.6715729 17.6715729,14 18.5,14 L29.5,14 C30.3284271,14 31,14.6715729 31,15.5 L31,16.999 L37,16.999 L37,11 Z" id="bed" fill="#0071B3"></path>
    </g>
</svg>