<svg width="20" height="18" viewBox="0 0 20 18" fill="none" xmlns="http://www.w3.org/2000/svg">
<path d="M17.25 8.5C17.6642 8.5 18 8.16421 18 7.75C18 7.33579 17.6642 7 17.25 7C16.8358 7 16.5 7.33579 16.5 7.75C16.5 8.16421 16.8358 8.5 17.25 8.5Z" fill="#0071B3"/>
<path fill-rule="evenodd" clip-rule="evenodd" d="M19.25 5H16V0.75C16 0.335786 15.6642 0 15.25 0H4.75C4.33579 0 4 0.335786 4 0.75V5H0.75C0.335786 5 0 5.33579 0 5.75V13.25C0 13.6642 0.335786 14 0.75 14H4V17.25C4 17.6642 4.33579 18 4.75 18H15.25C15.6642 18 16 17.6642 16 17.25V14H19.25C19.6642 14 20 13.6642 20 13.25V5.75C20 5.33579 19.6642 5 19.25 5ZM5.5 1.5H14.5V5H5.5V1.5ZM14.5 16.5V11H5.5V16.5H14.5ZM15.67 9.63C15.5463 9.5454 15.3999 9.5001 15.25 9.5H4.75C4.33579 9.5 4 9.83579 4 10.25V12.5H1.5V6.5H18.5V12.5H16V10.25C15.9995 10.0014 15.876 9.76921 15.67 9.63Z" fill="#0071B3"/>
</svg>
