<svg width="25" height="24" viewBox="0 0 25 24" fill="none" xmlns="http://www.w3.org/2000/svg">
<g clip-path="url(#clip0_3639_4620)">
<path fill-rule="evenodd" clip-rule="evenodd" d="M12.8351 14.5C11.4541 14.5 10.3351 13.3805 10.3351 12C10.3351 10.6195 11.4541 9.5 12.8351 9.5C14.2156 9.5 15.3351 10.6195 15.3351 12C15.3351 13.3805 14.2156 14.5 12.8351 14.5ZM12.8351 8C10.6261 8 8.83514 9.791 8.83514 12C8.83514 14.209 10.6261 16 12.8351 16C15.0441 16 16.8351 14.209 16.8351 12C16.8351 9.791 15.0441 8 12.8351 8ZM12.8351 5C7.26864 5 3.10464 9.364 1.96114 10.701C1.31764 11.454 1.31764 12.546 1.96114 13.299C3.10464 14.636 7.26864 19 12.8351 19C18.4016 19 22.5651 14.636 23.7091 13.299C24.3526 12.546 24.3526 11.454 23.7091 10.701C22.5651 9.364 18.4016 5 12.8351 5ZM12.8351 6.5C17.7786 6.5 21.5606 10.4965 22.5691 11.676C22.7296 11.864 22.7296 12.136 22.5691 12.324C21.5606 13.5035 17.7786 17.5 12.8351 17.5C7.89164 17.5 4.10964 13.5035 3.10114 12.324C2.94064 12.136 2.94064 11.864 3.10114 11.676C4.10964 10.4965 7.89164 6.5 12.8351 6.5Z" fill="#999999"/>
</g>
<defs>
<clipPath id="clip0_3639_4620">
<rect width="24" height="24" fill="white" transform="translate(0.833496)"/>
</clipPath>
</defs>
</svg>
