<svg width="25" height="24" viewBox="0 0 25 24" fill="none" xmlns="http://www.w3.org/2000/svg">
<path d="M20.0001 4.93004C19.0606 4.02124 17.8072 3.50914 16.5001 3.50004C15.4176 3.4964 14.3638 3.84766 13.5001 4.50004C13.1215 4.78482 12.7848 5.12145 12.5001 5.50004C12.2153 5.12145 11.8787 4.78482 11.5001 4.50004C10.6376 3.84392 9.58376 3.48865 8.50006 3.48865C7.41637 3.48865 6.36256 3.84392 5.50006 4.50004C4.87618 4.96305 4.37004 5.5664 4.02259 6.2613C3.67514 6.9562 3.49613 7.72313 3.50006 8.50004C3.50006 16 11.5001 20.5 12.5001 20.5C13.5001 20.5 21.5001 16 21.5001 8.50004C21.5 7.83514 21.3673 7.17693 21.1097 6.56394C20.8521 5.95094 20.4749 5.39548 20.0001 4.93004ZM12.5001 18.93C9.81722 17.6027 7.59973 15.4933 6.14006 12.88C5.40844 11.5349 5.01706 10.0312 5.00006 8.50004C5.00039 7.69667 5.27707 6.91787 5.78367 6.29436C6.29027 5.67086 6.99595 5.24061 7.78225 5.07585C8.56854 4.91108 9.38758 5.02183 10.1019 5.3895C10.8162 5.75717 11.3822 6.35938 11.7051 7.09504C11.7351 7.16504 11.7601 7.24004 11.7901 7.31504C11.8403 7.46212 11.9353 7.58979 12.0617 7.6802C12.1881 7.7706 12.3396 7.81921 12.4951 7.81921C12.6505 7.81921 12.802 7.7706 12.9284 7.6802C13.0548 7.58979 13.1498 7.46212 13.2001 7.31504C13.2251 7.24004 13.2551 7.16504 13.2851 7.09504C13.6042 6.35326 14.17 5.74465 14.8866 5.37238C15.6032 5.00011 16.4265 4.88708 17.2169 5.05246C18.0073 5.21784 18.7162 5.65145 19.2235 6.27979C19.7307 6.90812 20.0051 7.69253 20.0001 8.50004C19.9872 10.0397 19.5956 11.5525 18.8601 12.905C17.4004 15.5183 15.1829 17.6277 12.5001 18.955V18.93Z" fill="#999999"/>
</svg>
