<svg width="24" height="24" viewBox="0 0 24 24" fill="none" xmlns="http://www.w3.org/2000/svg">
<path d="M19.5001 4.93004C18.5606 4.02124 17.3072 3.50914 16.0001 3.50004C14.9176 3.4964 13.8638 3.84766 13.0001 4.50004C12.6215 4.78482 12.2848 5.12145 12.0001 5.50004C11.7153 5.12145 11.3787 4.78482 11.0001 4.50004C10.1376 3.84392 9.08376 3.48865 8.00006 3.48865C6.91637 3.48865 5.86256 3.84392 5.00006 4.50004C4.37618 4.96305 3.87004 5.5664 3.52259 6.2613C3.17514 6.9562 2.99613 7.72313 3.00006 8.50004C3.00006 16 11.0001 20.5 12.0001 20.5C13.0001 20.5 21.0001 16 21.0001 8.50004C21 7.83514 20.8673 7.17693 20.6097 6.56394C20.3521 5.95094 19.9749 5.39548 19.5001 4.93004ZM12.0001 18.93C9.31722 17.6027 7.09973 15.4933 5.64006 12.88C4.90844 11.5349 4.51706 10.0312 4.50006 8.50004C4.50039 7.69667 4.77707 6.91787 5.28367 6.29436C5.79027 5.67086 6.49595 5.24061 7.28225 5.07585C8.06854 4.91108 8.88758 5.02183 9.60188 5.3895C10.3162 5.75717 10.8822 6.35938 11.2051 7.09504C11.2351 7.16504 11.2601 7.24004 11.2901 7.31504C11.3403 7.46212 11.4353 7.58979 11.5617 7.6802C11.6881 7.7706 11.8396 7.81921 11.9951 7.81921C12.1505 7.81921 12.302 7.7706 12.4284 7.6802C12.5548 7.58979 12.6498 7.46212 12.7001 7.31504C12.7251 7.24004 12.7551 7.16504 12.7851 7.09504C13.1042 6.35326 13.67 5.74465 14.3866 5.37238C15.1032 5.00011 15.9265 4.88708 16.7169 5.05246C17.5073 5.21784 18.2162 5.65145 18.7235 6.27979C19.2307 6.90812 19.5051 7.69253 19.5001 8.50004C19.4872 10.0397 19.0956 11.5525 18.3601 12.905C16.9004 15.5183 14.6829 17.6277 12.0001 18.955V18.93Z" fill="#0071B3"/>
</svg>
