<svg width="18" height="20" viewBox="0 0 18 20" fill="none" xmlns="http://www.w3.org/2000/svg">
<path fill-rule="evenodd" clip-rule="evenodd" d="M15.0003 13.8954C14.0526 13.8962 13.1609 14.3448 12.5953 15.1054L5.84035 11.2054C6.03815 10.6271 6.05212 10.0019 5.88035 9.41538L12.7303 5.46038C13.7173 6.6041 15.4006 6.83559 16.6596 6.00071C17.9186 5.16583 18.3605 3.52504 17.6909 2.17086C17.0214 0.816677 15.4494 0.171577 14.0216 0.665097C12.5938 1.15862 11.7557 2.63679 12.0653 4.11538L5.12035 8.11538C3.9612 6.95729 2.08728 6.94348 0.911183 8.08434C-0.264916 9.22521 -0.308083 11.0987 0.814221 12.2925C1.93652 13.4863 3.80909 13.5588 5.02035 12.4554L12.0203 16.5004C11.8559 17.7385 12.4757 18.9489 13.5764 19.5392C14.6771 20.1295 16.0283 19.976 16.9687 19.154C17.909 18.332 18.2417 17.0134 17.8039 15.8437C17.366 14.674 16.2493 13.8979 15.0003 13.8954ZM15.0003 2.00538C15.8288 2.00538 16.5003 2.67695 16.5003 3.50538C16.5003 4.3338 15.8288 5.00538 15.0003 5.00538C14.1719 5.00538 13.5003 4.3338 13.5003 3.50538C13.5003 2.67695 14.1719 2.00538 15.0003 2.00538ZM3.00035 11.7454C2.17192 11.7454 1.50035 11.0738 1.50035 10.2454C1.50035 9.41695 2.17192 8.74538 3.00035 8.74538C3.82878 8.74538 4.50035 9.41695 4.50035 10.2454C4.50035 11.0738 3.82878 11.7454 3.00035 11.7454ZM15.0003 18.3954C14.1719 18.3954 13.5003 17.7238 13.5003 16.8954C13.5003 16.0669 14.1719 15.3954 15.0003 15.3954C15.8288 15.3954 16.5003 16.0669 16.5003 16.8954C16.5003 17.7238 15.8288 18.3954 15.0003 18.3954Z" fill="#0071B3"/>
</svg>
