<svg width="24" height="24" viewBox="0 0 24 24" fill="none" xmlns="http://www.w3.org/2000/svg">
<path d="M12.4194 2.74226L21.0254 12.3003C21.3024 12.6083 21.2774 13.0823 20.9699 13.3598C20.6619 13.6368 20.1879 13.6118 19.9109 13.3043L11.8584 4.36076L3.80743 13.3018C3.53043 13.6098 3.05643 13.6343 2.74843 13.3573C2.44043 13.0803 2.41543 12.6058 2.69243 12.2983L11.2989 2.74026C11.3067 2.73138 11.3163 2.72542 11.3259 2.71949C11.3336 2.71473 11.3413 2.70999 11.3479 2.70376C11.3603 2.69236 11.3736 2.68317 11.3871 2.67391C11.3949 2.66853 11.4027 2.66313 11.4104 2.65726C11.4684 2.61276 11.5289 2.57376 11.5944 2.54876C11.6167 2.54022 11.6395 2.53554 11.6625 2.53083C11.6705 2.5292 11.6784 2.52756 11.6864 2.52576C11.7464 2.51126 11.8064 2.49976 11.8674 2.49976C11.902 2.5006 11.9363 2.50714 11.9704 2.51366C11.9768 2.51487 11.9831 2.51608 11.9894 2.51726C12.0394 2.52626 12.0894 2.53526 12.1374 2.55426C12.1869 2.57426 12.2324 2.60576 12.2774 2.63726C12.2845 2.64206 12.2916 2.64676 12.2987 2.65145C12.3262 2.66971 12.3537 2.68789 12.3779 2.71176C12.3836 2.71725 12.3903 2.72127 12.397 2.72532C12.4049 2.73011 12.4129 2.73493 12.4194 2.74226Z" fill="white"/>
<path d="M6.35918 20.5483H17.3592V11.9688L18.8592 13.6348V21.2983C18.8592 21.7118 18.5242 22.0473 18.1107 22.0483H5.60918C5.19468 22.0483 4.85918 21.7128 4.85918 21.2983V13.6353L6.35918 11.9693V20.5483Z" fill="white"/>
</svg>
