<svg width="24" height="24" viewBox="0 0 24 24" fill="none" xmlns="http://www.w3.org/2000/svg">
<path fill-rule="evenodd" clip-rule="evenodd" d="M19.2644 16.1394V7.8894C20.4018 7.53919 21.1346 6.43577 21.0163 5.2516C20.898 4.06742 19.9614 3.13078 18.7772 3.01249C17.593 2.89419 16.4896 3.62703 16.1394 4.7644H7.8894C7.53919 3.62703 6.43577 2.89419 5.2516 3.01249C4.06742 3.13078 3.13078 4.06742 3.01249 5.2516C2.89419 6.43577 3.62703 7.53919 4.7644 7.8894V16.1394C3.62703 16.4896 2.89419 17.593 3.01249 18.7772C3.13078 19.9614 4.06742 20.898 5.2516 21.0163C6.43577 21.1346 7.53919 20.4018 7.8894 19.2644H16.1394C16.4896 20.4018 17.593 21.1346 18.7772 21.0163C19.9614 20.898 20.898 19.9614 21.0163 18.7772C21.1346 17.593 20.4018 16.4896 19.2644 16.1394ZM16.1394 17.7644H7.8894C7.64354 16.9911 7.03768 16.3853 6.2644 16.1394V7.8894C7.03768 7.64354 7.64354 7.03768 7.8894 6.2644H16.1394C16.3853 7.03768 16.9911 7.64354 17.7644 7.8894V16.1394C16.9911 16.3853 16.3853 16.9911 16.1394 17.7644ZM18.5144 4.5144C19.0667 4.5144 19.5144 4.96212 19.5144 5.5144C19.5144 6.06669 19.0667 6.5144 18.5144 6.5144C17.9621 6.5144 17.5144 6.06669 17.5144 5.5144C17.5144 4.96212 17.9621 4.5144 18.5144 4.5144ZM5.5144 4.5144C6.06669 4.5144 6.5144 4.96212 6.5144 5.5144C6.5144 6.06669 6.06669 6.5144 5.5144 6.5144C4.96212 6.5144 4.5144 6.06669 4.5144 5.5144C4.5144 4.96212 4.96212 4.5144 5.5144 4.5144ZM5.5144 19.5144C4.96212 19.5144 4.5144 19.0667 4.5144 18.5144C4.5144 17.9621 4.96212 17.5144 5.5144 17.5144C6.06669 17.5144 6.5144 17.9621 6.5144 18.5144C6.5144 19.0667 6.06669 19.5144 5.5144 19.5144ZM18.5144 19.5144C17.9621 19.5144 17.5144 19.0667 17.5144 18.5144C17.5144 17.9621 17.9621 17.5144 18.5144 17.5144C19.0667 17.5144 19.5144 17.9621 19.5144 18.5144C19.5144 19.0667 19.0667 19.5144 18.5144 19.5144Z" fill="#0071B3"/>
</svg>
