<svg width="24" height="24" viewBox="0 0 24 24" fill="none" xmlns="http://www.w3.org/2000/svg">
<path fill-rule="evenodd" clip-rule="evenodd" d="M12 1.5C6.20101 1.5 1.5 6.20101 1.5 12C1.5 17.799 6.20101 22.5 12 22.5C17.799 22.5 22.5 17.799 22.5 12C22.5 9.21523 21.3938 6.54451 19.4246 4.57538C17.4555 2.60625 14.7848 1.5 12 1.5ZM7.5 19.78V17.5C7.5 16.275 8.56 15.26 9.955 15.045C10.1353 15.0161 10.3175 15.0011 10.5 15H13.5C13.6825 15.0011 13.8647 15.0161 14.045 15.045C15.44 15.26 16.5 16.275 16.5 17.5V19.78C13.7196 21.4033 10.2804 21.4033 7.5 19.78ZM18 17.25C17.9992 17.1823 17.9891 17.115 17.97 17.05C17.72 15.05 15.815 13.5 13.5 13.5H10.5C8.185 13.5 6.28 15.055 6.03 17.05C6.01089 17.115 6.0008 17.1823 6 17.25V18.69C3.21867 16.2023 2.26095 12.2563 3.59245 8.7704C4.92395 5.28449 8.26846 2.9818 12 2.9818C15.7315 2.9818 19.0761 5.28449 20.4076 8.7704C21.739 12.2563 20.7813 16.2023 18 18.69V17.25ZM12 4.5C9.79086 4.5 8 6.29086 8 8.5C8 10.7091 9.79086 12.5 12 12.5C14.2091 12.5 16 10.7091 16 8.5C16 7.43913 15.5786 6.42172 14.8284 5.67157C14.0783 4.92143 13.0609 4.5 12 4.5ZM12 11C10.6193 11 9.5 9.88071 9.5 8.5C9.5 7.11929 10.6193 6 12 6C13.3807 6 14.5 7.11929 14.5 8.5C14.5 9.88071 13.3807 11 12 11Z" fill="white"/>
</svg>
