<svg width="24" height="24" viewBox="0 0 24 24" fill="none" xmlns="http://www.w3.org/2000/svg">
<path fill-rule="evenodd" clip-rule="evenodd" d="M20 10L22 13V17.75C22 18.1642 21.6642 18.5 21.25 18.5H19.5V19.25C19.5 19.6642 19.1642 20 18.75 20C18.3358 20 18 19.6642 18 19.25V18.5H6V19.25C6 19.6642 5.66421 20 5.25 20C4.83579 20 4.5 19.6642 4.5 19.25V18.5H2.75C2.33579 18.5 2 18.1642 2 17.75V13L4 10V4.75C4 4.33579 4.33579 4 4.75 4H19.25C19.6642 4 20 4.33579 20 4.75V10ZM18.5 5.5H5.5V8.5H8.5V7.75C8.5 7.33579 8.83579 7 9.25 7H14.75C15.1642 7 15.5 7.33579 15.5 7.75V8.5H18.5V5.5ZM5.5 10L3.5 13H20.5L18.5 10H15.5V10.75C15.5 11.1642 15.1642 11.5 14.75 11.5H9.25C8.83579 11.5 8.5 11.1642 8.5 10.75V10H5.5ZM3.5 17V14.5H20.5V17H3.5ZM10 8.5V10H14V8.5H10Z" fill="#999999"/>
</svg>
