<svg width="311" height="48" viewBox="0 0 311 48" fill="none" xmlns="http://www.w3.org/2000/svg">
<path fill-rule="evenodd" clip-rule="evenodd" d="M172.378 0.732056H176.344V5.07606H172.378V0.732056Z" fill="#00A8E8"/>
<path fill-rule="evenodd" clip-rule="evenodd" d="M175.798 0.732056H179.236V5.07606H175.798V0.732056Z" fill="#84D0F0"/>
<rect x="174.691" width="13.398" height="3.669" rx="1.8345" fill="#84D0F0"/>
<path fill-rule="evenodd" clip-rule="evenodd" d="M190.268 47.97H168.644V9.08997C168.644 6.8731 170.441 5.07597 172.658 5.07597H186.254C188.47 5.07597 190.268 6.8731 190.268 9.08997V47.97V47.97Z" fill="#84D0F0"/>
<path fill-rule="evenodd" clip-rule="evenodd" d="M182.152 47.97H160.528V9.08997C160.528 6.8731 162.325 5.07597 164.542 5.07597H178.138C180.355 5.07597 182.152 6.8731 182.152 9.08997V47.97V47.97Z" fill="#00A8E8"/>
<path fill-rule="evenodd" clip-rule="evenodd" d="M170.467 29.3669C169.821 29.3677 169.201 29.1113 168.744 28.6543C168.287 28.1973 168.03 27.5773 168.031 26.9309C168.031 26.2817 168.29 25.6594 168.751 25.202C169.212 24.7447 169.836 24.4901 170.485 24.4949C171.829 24.4966 172.918 25.5867 172.918 26.9309C172.919 27.5799 172.661 28.2022 172.2 28.6597C171.74 29.1171 171.116 29.3717 170.467 29.3669ZM177.637 29.3669C176.991 29.3677 176.371 29.1113 175.914 28.6543C175.457 28.1973 175.2 27.5773 175.201 26.9309C175.201 26.2849 175.458 25.6653 175.915 25.2084C176.371 24.7516 176.991 24.4949 177.637 24.4949C178.285 24.4925 178.907 24.748 179.367 25.2051C179.826 25.6621 180.084 26.283 180.085 26.9309C180.085 27.5791 179.827 28.2005 179.367 28.6577C178.908 29.1149 178.285 29.3701 177.637 29.3669ZM161.562 28.6545C162.019 29.1115 162.639 29.3679 163.285 29.3671C163.931 29.3679 164.552 29.1115 165.009 28.6545C165.466 28.1975 165.722 27.5774 165.721 26.9311C165.721 26.285 165.464 25.6654 165.008 25.2086C164.551 24.7517 163.931 24.4951 163.285 24.4951C162.639 24.4951 162.019 24.7517 161.563 25.2086C161.106 25.6654 160.849 26.285 160.849 26.9311C160.848 27.5774 161.105 28.1975 161.562 28.6545Z" fill="#84D0F0"/>
<rect x="161.545" y="31.6591" width="18.726" height="4.749" rx="2.3745" fill="#84D0F0"/>
<rect x="174.43" y="25.266" width="4.806" height="3.333" rx="1.6665" fill="#F97D00"/>
<rect x="167.17" y="25.266" width="4.806" height="3.333" rx="1.6665" fill="#F8B000"/>
<rect x="159.91" y="25.266" width="4.806" height="3.333" rx="1.6665" fill="#FDCC2E"/>
<path fill-rule="evenodd" clip-rule="evenodd" d="M177.289 34.821H164.185C163.745 34.7946 163.401 34.4297 163.401 33.9885C163.401 33.5474 163.745 33.1825 164.185 33.156H177.301C177.611 33.1375 177.905 33.292 178.065 33.5572C178.225 33.8224 178.225 34.1547 178.065 34.4199C177.905 34.6851 177.611 34.8396 177.301 34.821H177.289Z" fill="#55241A"/>
<path fill-rule="evenodd" clip-rule="evenodd" d="M162.529 8.48999H179.992V21.36H162.529V8.48999Z" fill="#53241B"/>
<path fill-rule="evenodd" clip-rule="evenodd" d="M174.106 44.868C174.108 46.5868 172.723 47.9852 171.004 48H159.004C160.723 47.9852 162.108 46.5868 162.106 44.868V37.137C162.106 36.3001 162.439 35.4973 163.031 34.9066C163.624 34.3159 164.428 33.986 165.265 33.99H177.265C176.431 33.9892 175.63 34.3205 175.039 34.9109C174.449 35.5012 174.118 36.3021 174.118 37.137L174.106 44.868Z" fill="white"/>
<path fill-rule="evenodd" clip-rule="evenodd" d="M144.986 44.868C144.986 46.5754 146.365 47.9618 148.073 47.97H160.073C158.359 47.97 156.971 46.5812 156.971 44.868V19.038C156.968 18.2029 156.634 17.4029 156.041 16.8143C155.449 16.2257 154.647 15.8968 153.812 15.9H141.812C142.649 15.8928 143.455 16.22 144.051 16.809C144.647 17.398 144.983 18.2002 144.986 19.038V44.868Z" fill="#84D0F0"/>
<ellipse cx="138.521" cy="19.521" rx="1.272" ry="1.281" fill="#FFB70A"/>
<path fill-rule="evenodd" clip-rule="evenodd" d="M150.577 30.7021V18.9781C150.577 18.1432 150.908 17.3423 151.498 16.7519C152.089 16.1616 152.889 15.8303 153.724 15.8311H141.724C139.991 15.8377 138.589 17.2447 138.589 18.9781V30.7021H150.577Z" fill="white"/>
<path fill-rule="evenodd" clip-rule="evenodd" d="M140.486 20.1H148.397H148.406C148.562 20.1133 148.713 20.0372 148.796 19.9031C148.879 19.769 148.879 19.5999 148.796 19.4658C148.713 19.3318 148.562 19.2556 148.406 19.269H140.486C140.329 19.2556 140.178 19.3318 140.095 19.4658C140.013 19.5999 140.013 19.769 140.095 19.9031C140.178 20.0372 140.329 20.1133 140.486 20.1ZM140.501 22.5H146.258C146.414 22.5133 146.565 22.4372 146.648 22.3031C146.731 22.169 146.731 21.9999 146.648 21.8658C146.565 21.7318 146.414 21.6556 146.258 21.669H140.501C140.344 21.6556 140.193 21.7318 140.11 21.8658C140.028 21.9999 140.028 22.169 140.11 22.3031C140.193 22.4372 140.344 22.5133 140.501 22.5ZM148.397 24.936H140.486C140.329 24.9493 140.178 24.8732 140.095 24.7391C140.013 24.605 140.013 24.4359 140.095 24.3018C140.178 24.1678 140.329 24.0916 140.486 24.105H148.406C148.562 24.0916 148.713 24.1678 148.796 24.3018C148.879 24.4359 148.879 24.605 148.796 24.7391C148.713 24.8732 148.562 24.9493 148.406 24.936H148.397ZM140.501 27.327H147.341C147.571 27.327 147.758 27.1403 147.758 26.91C147.758 26.6797 147.571 26.493 147.341 26.493H140.501C140.27 26.493 140.084 26.6797 140.084 26.91C140.084 27.1403 140.27 27.327 140.501 27.327Z" fill="#0071B3"/>
<path fill-rule="evenodd" clip-rule="evenodd" d="M131.584 18.879L135.049 22.326L137.185 19.5L138.601 20.799L136.324 24.399C136.125 24.7146 135.802 24.9312 135.434 24.9952C135.067 25.0592 134.689 24.9647 134.395 24.735L130.969 22.083L131.584 18.879Z" fill="#53241B"/>
<path fill-rule="evenodd" clip-rule="evenodd" d="M132.613 47.103L132.286 30.663L129.325 30.318L130.714 47.106L132.613 47.103Z" fill="#53241B"/>
<path fill-rule="evenodd" clip-rule="evenodd" d="M130.714 47.028H133.915C134.041 47.028 134.162 47.0779 134.251 47.1668C134.339 47.2557 134.389 47.3763 134.389 47.502C134.389 47.7638 134.177 47.976 133.915 47.976H130.714V47.022V47.028Z" fill="#F97D00"/>
<path fill-rule="evenodd" clip-rule="evenodd" d="M126.068 47.103L125.81 30.054L128.948 30.318L127.874 47.106L126.068 47.103Z" fill="#53241B"/>
<rect x="128.452" y="47.979" width="3.006" height="0.953999" rx="0.476999" transform="rotate(-180 128.452 47.979)" fill="#F97D00"/>
<path fill-rule="evenodd" clip-rule="evenodd" d="M132.286 30.663L127.126 31.107L124.513 31.908V21.177C124.513 19.545 125.563 18.222 127.195 18.222H129.949C131.24 18.222 132.286 19.2684 132.286 20.559V30.663Z" fill="#53241B"/>
<path fill-rule="evenodd" clip-rule="evenodd" d="M130.958 21.3L130.943 26.43H131.006L131.486 23.7C131.643 22.8101 131.61 21.8968 131.387 21.021L130.706 18.354C130.55 18.3025 130.391 18.2663 130.229 18.246L130.958 21.3Z" fill="#6D433A"/>
<path fill-rule="evenodd" clip-rule="evenodd" d="M130.966 29.1V21.3L130.231 18.24C130.138 18.228 130.043 18.222 129.949 18.222H127.285L128.116 21.471V29.1H130.966Z" fill="#84D0F0"/>
<path fill-rule="evenodd" clip-rule="evenodd" d="M130.228 18.24L129.463 19.353L127.306 18.222L127.18 15.027L130.189 14.928L130.228 18.24Z" fill="#FFB70A"/>
<ellipse cx="132.848" cy="8.81137" rx="1.5" ry="1.512" transform="rotate(-0.729999 132.848 8.81137)" fill="#F97D00"/>
<path fill-rule="evenodd" clip-rule="evenodd" d="M133.201 8.09996C133.092 8.118 132.985 8.05825 132.943 7.95596C132.571 7.08896 131.257 6.48596 130.405 6.28196C128.971 5.93996 127.651 6.66296 126.826 7.82096C126.772 7.89761 126.678 7.93524 126.586 7.91696C126.145 8.5194 125.92 9.25286 125.947 9.99896C125.968 10.653 126.073 11.283 126.055 11.94C126.054 12.0034 126.026 12.0633 125.978 12.1046C125.93 12.1458 125.866 12.1645 125.803 12.156L125.818 13.329C125.835 14.7394 126.603 16.0339 127.832 16.7248C129.062 17.4156 130.567 17.3979 131.78 16.6783C132.994 15.9586 133.731 14.6464 133.714 13.236L133.675 9.93596C133.669 9.29448 133.506 8.66419 133.201 8.09996Z" fill="#FFB70A"/>
<path fill-rule="evenodd" clip-rule="evenodd" d="M132.898 12.795C132.903 13.213 132.684 13.6019 132.325 13.815C131.965 14.0282 131.519 14.0334 131.155 13.8285C130.79 13.6237 130.563 13.24 130.558 12.822L132.898 12.795Z" fill="white"/>
<path fill-rule="evenodd" clip-rule="evenodd" d="M129.685 5.99999C128.478 6.01575 127.346 6.58683 126.616 7.54799C126.616 7.50899 126.616 7.46999 126.601 7.46399C126.594 7.39018 126.594 7.31579 126.601 7.24199C126.605 7.10245 126.633 6.96459 126.682 6.83399C126.745 6.65099 126.454 6.57599 126.382 6.75899C126.299 6.98836 126.273 7.23419 126.304 7.47599C126.135 7.41609 125.955 7.39159 125.776 7.40399C125.584 7.40399 125.587 7.70399 125.776 7.70399C125.889 7.69642 126.002 7.70552 126.112 7.73099C126.165 7.74345 126.216 7.76052 126.265 7.78199L126.34 7.81499C126.344 7.83556 126.352 7.85505 126.364 7.87199V7.88699C125.964 8.52713 125.756 9.26832 125.764 10.023L125.818 13.2C126.3 13.371 126.836 13.2548 127.204 12.9C127.939 12.153 127.912 9.80699 127.912 9.80699C127.912 9.80699 130.966 9.66299 131.698 9.44399C132.469 9.16314 133.15 8.67907 133.669 8.04299C133.021 6.70799 131.26 5.97299 129.685 5.99999Z" fill="#F97D00"/>
<ellipse cx="132.181" cy="7.13998" rx="1.776" ry="1.788" transform="rotate(-0.729999 132.181 7.13998)" fill="#F97D00"/>
<path fill-rule="evenodd" clip-rule="evenodd" d="M124.861 30.318C125.065 30.318 125.26 30.2369 125.403 30.0928C125.547 29.9487 125.627 29.7534 125.626 29.55V28.2C125.627 27.9963 125.547 27.8006 125.403 27.656C125.26 27.5114 125.065 27.4297 124.861 27.429C124.658 27.4297 124.462 27.5114 124.319 27.656C124.176 27.8006 124.095 27.9963 124.096 28.2V29.55C124.095 29.7534 124.176 29.9487 124.319 30.0928C124.463 30.2369 124.658 30.318 124.861 30.318Z" fill="#FFB70A"/>
<path fill-rule="evenodd" clip-rule="evenodd" d="M123.94 28.716L125.626 27.258L123.49 24.159L126.868 20.757L125.446 18.879L121.123 23.283C120.576 23.8633 120.559 24.7647 121.084 25.365L123.94 28.716Z" fill="#53241B"/>
<path fill-rule="evenodd" clip-rule="evenodd" d="M129.463 19.353L128.959 20.286L127.546 19.242L127.285 18.222H127.312L129.463 19.353ZM129.463 19.353L130.228 18.24L130.336 18.69L130.228 20.181L129.463 19.353Z" fill="white"/>
<path fill-rule="evenodd" clip-rule="evenodd" d="M128.116 21.471L127.285 18.222L126.985 22.107C126.905 23.1341 127.081 24.165 127.498 25.107L128.098 26.445L128.116 21.471Z" fill="#6D433A"/>
<path fill-rule="evenodd" clip-rule="evenodd" d="M163.226 21.36H162.53V8.48999H163.226V21.36Z" fill="#6D433A"/>
<rect x="168.646" width="10.053" height="3.669" rx="1.8345" fill="#00A8E8"/>
<rect x="179.836" y="1.13098" width="6.90901" height="1.476" rx="0.738" fill="#53241B"/>
<rect x="138.112" y="18.24" width="1.818" height="0.941999" rx="0.471" fill="#FFB70A"/>
<path fill-rule="evenodd" clip-rule="evenodd" d="M178.69 18.201L178.267 16.602C178.213 16.3983 178.04 16.2484 177.831 16.2239C177.622 16.1994 177.419 16.3053 177.319 16.491C177.218 16.6771 177.019 16.7888 176.808 16.7786C176.596 16.7684 176.409 16.638 176.326 16.443L175.969 15.6C175.905 15.446 175.758 15.343 175.591 15.3359C175.425 15.3289 175.269 15.419 175.192 15.567L174.841 16.239C174.731 16.4462 174.511 16.5704 174.277 16.5569C174.042 16.5433 173.838 16.3945 173.752 16.176L173.107 14.076C173.043 13.8731 172.849 13.7399 172.636 13.7526C172.424 13.7654 172.247 13.9208 172.207 14.13L171.481 16.983C171.438 17.1933 171.265 17.352 171.052 17.3759C170.838 17.3998 170.634 17.2836 170.545 17.088L169.912 15.552C169.849 15.4122 169.71 15.3224 169.557 15.3224C169.404 15.3224 169.264 15.4122 169.201 15.552L169.129 15.747C169.034 15.9499 168.823 16.0719 168.599 16.0524C168.376 16.033 168.189 15.8763 168.13 15.66L167.503 12.3C167.44 12.0615 167.222 11.8975 166.975 11.9032C166.728 11.9089 166.518 12.0829 166.465 12.324L165.307 18.156C165.289 18.2528 165.314 18.3529 165.377 18.4289C165.439 18.505 165.533 18.549 165.631 18.549L178.366 18.627C178.472 18.6297 178.573 18.5813 178.637 18.4969C178.701 18.4125 178.721 18.3024 178.69 18.201Z" fill="#9EC300"/>
<ellipse cx="183.334" cy="1.83603" rx="0.405001" ry="0.405" fill="#C0CE06"/>
<path fill-rule="evenodd" clip-rule="evenodd" d="M165.301 10.338H164.32C164.216 10.338 164.131 10.2534 164.131 10.149C164.131 10.0442 164.215 9.95867 164.32 9.95703H165.301C165.407 9.95703 165.493 10.043 165.493 10.149C165.492 10.2539 165.406 10.338 165.301 10.338ZM165.301 12.651H164.32C164.215 12.6494 164.131 12.5639 164.131 12.459C164.131 12.3546 164.216 12.27 164.32 12.27H165.301C165.406 12.27 165.492 12.3542 165.493 12.459C165.493 12.5651 165.407 12.651 165.301 12.651ZM164.32 15.168H165.301C165.407 15.168 165.493 15.0821 165.493 14.976C165.492 14.8712 165.406 14.787 165.301 14.787H164.32C164.216 14.787 164.131 14.8716 164.131 14.976C164.131 15.0809 164.215 15.1664 164.32 15.168ZM165.301 17.478H164.32C164.216 17.478 164.131 17.3934 164.131 17.289C164.131 17.1842 164.215 17.0987 164.32 17.097H165.301C165.407 17.097 165.493 17.183 165.493 17.289C165.492 17.3939 165.406 17.478 165.301 17.478ZM164.32 19.893H178.699C178.805 19.893 178.891 19.8071 178.891 19.701C178.891 19.6504 178.871 19.6018 178.835 19.5663C178.799 19.5308 178.75 19.5112 178.699 19.512H164.32C164.216 19.512 164.131 19.5966 164.131 19.701C164.131 19.8059 164.215 19.8914 164.32 19.893Z" fill="white"/>
<path fill-rule="evenodd" clip-rule="evenodd" d="M172.382 36.216H164.717C164.501 36.1977 164.335 36.0171 164.335 35.8005C164.335 35.5839 164.501 35.4034 164.717 35.385H172.382C172.597 35.4034 172.763 35.5839 172.763 35.8005C172.763 36.0171 172.597 36.1977 172.382 36.216ZM171.836 38.508H164.186C164.029 38.5214 163.878 38.4452 163.795 38.3111C163.713 38.1771 163.713 38.0079 163.795 37.8739C163.878 37.7398 164.029 37.6637 164.186 37.677H171.836C171.992 37.6637 172.143 37.7398 172.226 37.8739C172.309 38.0079 172.309 38.1771 172.226 38.3111C172.143 38.4452 171.992 38.5214 171.836 38.508ZM164.126 41.154H167.786C167.942 41.1674 168.093 41.0912 168.176 40.9571C168.259 40.8231 168.259 40.6539 168.176 40.5199C168.093 40.3858 167.942 40.3097 167.786 40.323H164.126C163.91 40.3414 163.744 40.5219 163.744 40.7385C163.744 40.9551 163.91 41.1357 164.126 41.154ZM167.831 43.851H164.186C163.955 43.851 163.769 43.6643 163.769 43.434C163.769 43.2037 163.955 43.017 164.186 43.017H167.843C168.073 43.017 168.26 43.2037 168.26 43.434C168.26 43.6643 168.073 43.851 167.843 43.851H167.831ZM163.679 46.596H171.344C171.559 46.5777 171.725 46.3971 171.725 46.1805C171.725 45.9639 171.559 45.7834 171.344 45.765H163.679C163.463 45.7834 163.297 45.9639 163.297 46.1805C163.297 46.3971 163.463 46.5777 163.679 46.596Z" fill="#E6F2F7"/>
<path fill-rule="evenodd" clip-rule="evenodd" d="M169.105 40.446H171.757V43.683H169.105V40.446Z" fill="#E6F2F7"/>
</svg>
