<svg width="25" height="24" viewBox="0 0 25 24" fill="none" xmlns="http://www.w3.org/2000/svg">
<path fill-rule="evenodd" clip-rule="evenodd" d="M17.838 5.4625C17.1745 5.4625 16.637 6 16.637 6.6625C16.637 7.325 17.1745 7.8625 17.838 7.8625C18.5005 7.8625 19.037 7.325 19.037 6.6625C19.037 6 18.5005 5.4625 17.838 5.4625ZM12.4995 15.3335C10.659 15.3335 9.1665 13.8415 9.1665 12C9.1665 10.159 10.659 8.6665 12.4995 8.6665C14.3405 8.6665 15.833 10.159 15.833 12C15.833 13.8415 14.3405 15.3335 12.4995 15.3335ZM12.4995 6.865C9.664 6.865 7.3645 9.164 7.3645 12C7.3645 14.836 9.664 17.136 12.4995 17.136C15.3355 17.136 17.6345 14.8365 17.6345 12C17.6345 9.164 15.3355 6.865 12.4995 6.865ZM12.4995 2C9.784 2 9.444 2.012 8.3775 2.06C4.7455 2.2265 2.727 4.242 2.5605 7.8765C2.5115 8.944 2.5 9.2845 2.5 12C2.5 14.7155 2.5115 15.0565 2.5595 16.123C2.7265 19.755 4.7415 21.7735 8.3765 21.94C9.444 21.988 9.784 22 12.4995 22C15.2155 22 15.5565 21.988 16.623 21.94C20.2515 21.7735 22.2745 19.758 22.439 16.123C22.488 15.0565 22.4995 14.7155 22.4995 12C22.4995 9.2845 22.488 8.944 22.4395 7.8775C22.276 4.249 20.2585 2.2275 16.624 2.061C15.5565 2.012 15.2155 2 12.4995 2ZM12.4995 3.8025C15.1695 3.8025 15.486 3.8125 16.5415 3.861C19.2515 3.984 20.517 5.27 20.6405 7.96C20.689 9.0145 20.698 9.331 20.698 12.001C20.698 14.6715 20.688 14.9875 20.6405 16.0415C20.516 18.729 19.254 20.0175 16.5415 20.1405C15.486 20.189 15.1715 20.199 12.4995 20.199C9.8295 20.199 9.513 20.189 8.459 20.1405C5.7425 20.0165 4.483 18.725 4.3595 16.041C4.3115 14.9865 4.3015 14.671 4.3015 12C4.3015 9.33 4.312 9.0145 4.3595 7.959C4.484 5.27 5.7465 3.9835 8.459 3.86C9.514 3.8125 9.8295 3.8025 12.4995 3.8025Z" fill="#0071B3"/>
</svg>
