<svg width="44" height="44" viewBox="0 0 44 44" fill="none" xmlns="http://www.w3.org/2000/svg">
<rect width="44" height="44" rx="2" fill="white"/>
<path d="M16.8849 14.46C16.8849 15.8186 15.7925 16.92 14.4449 16.92C13.0973 16.92 12.0049 15.8186 12.0049 14.46C12.0049 13.1014 13.0973 12 14.4449 12C15.7925 12 16.8849 13.1014 16.8849 14.46Z" fill="#0071B3"/>
<path d="M27.1449 18.26C25.5186 18.2433 24.0017 19.0776 23.1449 20.46V18.665H19.1699V32H23.1299V25C23.1299 23.125 23.9949 22 25.6299 22C27.1299 22 27.8749 23.07 27.8749 25V32H31.9999V23.56C31.9999 20 29.9699 18.26 27.1449 18.26Z" fill="#0071B3"/>
<path d="M16.5249 18.665H12.3999V32H16.5249V18.665Z" fill="#0071B3"/>
</svg>
