<svg width="102" height="36" viewBox="0 0 102 36" fill="none" xmlns="http://www.w3.org/2000/svg">
<path fill-rule="evenodd" clip-rule="evenodd" d="M11.5881 20.5824C11.5724 20.5338 8.68775 10.075 7.41602 5.48926H76.8393C82.0072 5.48926 88.1478 8.96706 89.9978 15.2955C90.0173 15.3639 93.6937 28.6422 94.1707 30.3556H24.5197C19.2534 30.3556 13.3777 26.7026 11.5881 20.5824Z" fill="#53241B"/>
<path fill-rule="evenodd" clip-rule="evenodd" d="M11.5879 20.5825C11.5722 20.5338 8.68753 10.075 7.4158 5.48926H76.839C82.007 5.48926 88.1476 8.96707 89.9976 15.2955C90.0171 15.3639 93.6935 28.6422 94.1705 30.3556H24.5195C19.2532 30.3556 13.3775 26.7026 11.5879 20.5825ZM101.476 35.8075L95.2766 13.7865V13.7855C92.751 5.09885 84.4819 0 76.8468 0H0.198242L6.30788 22.0593V22.0933C8.84599 30.856 17.121 35.7593 24.3286 35.8431L101.476 35.8075Z" fill="#60C5F8"/>
<path fill-rule="evenodd" clip-rule="evenodd" d="M22.7221 25.5245H25.1541V15.2897H27.9846V13.4282H25.1541V11.8296C25.1541 11.0897 25.4181 10.8277 26.2037 10.8277H27.9846V8.53687H26.0128C24.1289 8.53687 22.7221 9.56295 22.7221 11.8296V13.4282H19.9355L20.4662 15.2897H22.7221V25.5245Z" fill="#FEFEFE"/>
<path fill-rule="evenodd" clip-rule="evenodd" d="M31.0532 21.4685C31.0532 24.2119 33.2009 25.6668 35.1093 25.6668C36.3751 25.6668 37.4733 25.1894 38.2346 24.2356H38.2833V25.5246H40.7153V13.4282H38.2833V20.6331C38.2833 22.2795 37.2552 23.2337 35.8959 23.2337C34.5134 23.2337 33.4873 22.2795 33.4873 20.6331V13.4282H31.0532V21.4685Z" fill="#FEFEFE"/>
<path fill-rule="evenodd" clip-rule="evenodd" d="M45.0229 25.5245H47.4572V18.3196C47.4572 16.6722 48.4815 15.718 49.8678 15.718C51.2287 15.718 52.2532 16.6722 52.2532 18.3196V25.5245H54.6855V17.4842C54.6855 14.7396 52.5394 13.2839 50.6544 13.2839C49.3654 13.2839 48.267 13.7611 47.5039 14.7161H47.4572V13.4281H45.0229V25.5245Z" fill="#FEFEFE"/>
<path fill-rule="evenodd" clip-rule="evenodd" d="M63.0897 15.718C65.3583 15.718 65.4769 17.7229 65.4769 19.4645C65.4769 21.2297 65.3583 23.2336 63.0897 23.2336C60.8018 23.2336 60.6829 21.3495 60.6829 19.4645C60.6829 17.603 60.8018 15.718 63.0897 15.718ZM65.4769 25.5245H67.9112V8.53662H65.4769V14.7162C64.5716 13.8565 63.5941 13.284 62.3536 13.284C60.8759 13.284 59.8008 13.9528 59.1077 14.8593C58.4415 15.718 58.249 16.5058 58.249 19.4645C58.249 22.4468 58.4415 23.2336 59.1077 24.0931C59.8008 25.0004 60.8759 25.6667 62.3536 25.6667C63.5941 25.6667 64.7137 25.095 65.4769 24.2589V25.5245Z" fill="#FEFEFE"/>
<path fill-rule="evenodd" clip-rule="evenodd" d="M78.5079 21.2776C78.5079 23.1628 77.8166 23.3766 75.7875 23.3766C74.1402 23.3766 73.4954 22.6621 73.4954 21.8501C73.4954 20.968 74.1656 20.3947 75.5966 20.3947H78.5079V21.2776ZM78.5079 25.5247H80.9402V17.2692C80.9402 14.287 78.8916 13.2842 75.9082 13.2842C74.0953 13.2842 72.7557 13.7614 71.8269 15.0504L73.7351 16.506C74.1656 15.8147 74.7634 15.576 76.027 15.576C77.7678 15.576 78.5079 15.9812 78.5079 17.1262V18.392H75.1429C72.5454 18.392 71.2075 20.0372 71.2075 21.9699C71.2075 24.0693 72.7811 25.6669 75.4779 25.6669C77.1234 25.6669 77.9606 25.286 78.461 24.4508H78.5079V25.5247Z" fill="#FEFEFE"/>
</svg>
