<svg width="25" height="24" viewBox="0 0 25 24" fill="none" xmlns="http://www.w3.org/2000/svg">
<path d="M9.16699 11.5C9.16699 12.0523 8.71928 12.5 8.16699 12.5C7.61471 12.5 7.16699 12.0523 7.16699 11.5C7.16699 10.9477 7.61471 10.5 8.16699 10.5C8.71928 10.5 9.16699 10.9477 9.16699 11.5Z" fill="#999999"/>
<path d="M8.16699 16.5C8.71928 16.5 9.16699 16.0523 9.16699 15.5C9.16699 14.9477 8.71928 14.5 8.16699 14.5C7.61471 14.5 7.16699 14.9477 7.16699 15.5C7.16699 16.0523 7.61471 16.5 8.16699 16.5Z" fill="#999999"/>
<path d="M13.172 11.5C13.172 12.0523 12.7243 12.5 12.172 12.5C11.6197 12.5 11.172 12.0523 11.172 11.5C11.172 10.9477 11.6197 10.5 12.172 10.5C12.7243 10.5 13.172 10.9477 13.172 11.5Z" fill="#999999"/>
<path d="M12.172 16.5C12.7243 16.5 13.172 16.0523 13.172 15.5C13.172 14.9477 12.7243 14.5 12.172 14.5C11.6197 14.5 11.172 14.9477 11.172 15.5C11.172 16.0523 11.6197 16.5 12.172 16.5Z" fill="#999999"/>
<path d="M17.167 11.5C17.167 12.0523 16.7193 12.5 16.167 12.5C15.6147 12.5 15.167 12.0523 15.167 11.5C15.167 10.9477 15.6147 10.5 16.167 10.5C16.7193 10.5 17.167 10.9477 17.167 11.5Z" fill="#999999"/>
<path d="M16.167 16.5C16.7193 16.5 17.167 16.0523 17.167 15.5C17.167 14.9477 16.7193 14.5 16.167 14.5C15.6147 14.5 15.167 14.9477 15.167 15.5C15.167 16.0523 15.6147 16.5 16.167 16.5Z" fill="#999999"/>
<path fill-rule="evenodd" clip-rule="evenodd" d="M21.167 6.25V19.25C21.167 19.6642 20.8312 20 20.417 20H3.91699C3.50278 20 3.16699 19.6642 3.16699 19.25V6.25C3.16699 5.83579 3.50278 5.5 3.91699 5.5H7.41699V4.75C7.41699 4.33579 7.75278 4 8.16699 4C8.58121 4 8.91699 4.33579 8.91699 4.75V5.5H15.417V4.75C15.417 4.33579 15.7528 4 16.167 4C16.5812 4 16.917 4.33579 16.917 4.75V5.5H20.417C20.8312 5.5 21.167 5.83579 21.167 6.25ZM8.91699 7.75C8.91699 8.16421 8.58121 8.5 8.16699 8.5C7.75278 8.5 7.41699 8.16421 7.41699 7.75V7H4.66699V18.5H19.667V7H16.917V7.75C16.917 8.16421 16.5812 8.5 16.167 8.5C15.7528 8.5 15.417 8.16421 15.417 7.75V7H8.91699V7.75Z" fill="#999999"/>
</svg>
