<svg width="24" height="24" viewBox="0 0 24 24" fill="none" xmlns="http://www.w3.org/2000/svg">
<path fill-rule="evenodd" clip-rule="evenodd" d="M22 5.93007C21.2516 6.2614 20.4578 6.47881 19.645 6.57507C20.5013 6.06375 21.1427 5.25885 21.45 4.31007C20.645 4.78951 19.764 5.12773 18.845 5.31007C17.5757 3.9448 15.5458 3.60621 13.9021 4.4856C12.2584 5.36498 11.4136 7.24151 11.845 9.05507C8.54512 8.88718 5.47174 7.32595 3.39 4.76007C2.28837 6.64019 2.84558 9.0533 4.66 10.2601C4.00901 10.244 3.37129 10.0726 2.8 9.76007C2.77518 11.7324 4.15672 13.4436 6.09 13.8351C5.4851 13.9996 4.85058 14.0235 4.235 13.9051C4.7718 15.5778 6.31352 16.7235 8.07 16.7551C6.34621 18.0904 4.16386 18.689 2 18.4201C3.87604 19.6262 6.05968 20.2667 8.29 20.2651C15.91 20.2651 20.21 13.8301 19.955 8.06007C20.758 7.47744 21.4505 6.75612 22 5.93007Z" fill="#0071B3"/>
</svg>
