<svg xmlns="http://www.w3.org/2000/svg" viewBox="0 0 544 199.4">
  <defs>
    <style>
      .cls-1{fill-rule:evenodd}.cls-1,.cls-2{fill:#fff}
    </style>
  </defs>
  <g id="Funda_MasterLogo">
    <path id="Achtergrond" d="M414.1 199.4H0L33.6 74C45.2 30.3 84.7 0 129.9 0H544l-33.6 125.4c-11.7 43.6-51.2 73.9-96.3 73.9Z" style="fill:#ff9b21"/>
    <path id="Shape" d="m53.8 79.5-26.3 98.4h387c35.4 0 66.4-23.8 75.6-58l26.3-98.4h-387c-35.4 0-66.4 23.8-75.6 58Z" style="fill:#6a281c"/>
    <path id="a" class="cls-1" d="M386.2 144.7c4.1 3.6 9.9 5.5 17.3 5.5s10.1-1.1 14.4-3.2c4.3-2.1 7.6-4.8 10-8.1 0-.1.2 0 .2 0v9.7c0 .1.1.2.2.2h16c.1 0 .2-.1.2-.2v-41c0-8.5-2.7-15.2-8.1-20-5.4-4.8-13.1-7.2-23-7.2s-13.9 1.5-19 4.4c-2.3 1.3-4.4 2.7-6.4 4.3-.1 0-.1.2 0 .4l9.5 11.3c0 .1.3.1.4 0 2.9-2.5 5.7-4 8.4-4.9 2-.8 4.4-1.1 7-1.1 4.9 0 8.5 1.1 10.9 3.4 2.4 2.2 3.6 5.2 3.6 8.8v.6c0 .1-.1.2-.2.2h-17.4c-9.4 0-16.7 2-22.1 6-5.4 4-8.1 9.5-8.1 16.5s2 10.8 6.1 14.5Zm28.3-9.6c-2 .6-4 .9-6.1.9-7 0-10.4-2.4-10.4-7.3s1.1-4.7 3.2-6.2c2.2-1.5 5.9-2.2 11.1-2.2h15.5c.2 0 .3.1.2.3-.5 2.4-1.3 5.2-3.1 7.6-1.2 1.6-3 3.4-4.8 4.5-1.7 1.1-3.6 1.9-5.6 2.5Z"/>
    <path id="d" class="cls-1" d="M317.4 147.8c3.9 1.6 8 2.4 12.2 2.4s8.4-.9 12-2.8c3.6-1.9 6.5-4.4 8.9-7.6h.2v8.6c0 .1.1.2.2.2h16.5c.1 0 .2-.1.2-.2V50.2c0-.1-.1-.2-.2-.2h-16.5c-.1 0-.2.1-.2.2v39.2c0 .1-.2.2-.2 0-2.3-3-5.2-5.4-8.7-7.1-3.5-1.8-7.5-2.6-12-2.6s-8.5.8-12.5 2.5c-3.9 1.6-7.4 3.9-10.4 7s-5.4 6.8-7.3 11.1c-1.8 4.3-2.6 9.2-2.6 14.5s.9 10.3 2.8 14.7c1.8 4.3 4.3 7.9 7.3 11 3 3.1 6.5 5.5 10.4 7.1Zm15.6-13.9c10.6 0 19.1-8.6 19.1-19.1s-8.6-19.1-19.1-19.1-19.1 8.6-19.1 19.1 8.6 19.1 19.1 19.1Z"/>
    <path id="n" class="cls-2" d="M222.2 81.4c0-.1.1-.2.2-.2h16.8c.1 0 .2.1.2.2v7.9c0 .1.2.2.2 0 2.1-2.9 4.8-5.3 8-6.9 3.4-1.8 7.3-2.6 11.5-2.6 8 0 14.4 2.5 19 7.5 4.8 4.9 7.1 11.8 7.1 20.7v40.6c0 .1-.1.2-.2.2h-17.1c-.1 0-.2-.1-.2-.2v-39.3c0-7.8-6.3-14.1-14.1-14.1s-14.1 6.3-14.1 14.1v39.3c0 .1-.1.2-.2.2h-16.9c-.1 0-.2-.1-.2-.2V81.5Z"/>
    <path id="u" class="cls-2" d="M162.1 81.4c0-.1-.1-.2-.2-.2h-17.1c-.1 0-.2.1-.2.2v40.3c0 8.9 2.3 15.9 6.9 20.9 4.6 5 11.1 7.5 19.4 7.5s7.9-.9 11.3-2.6c3.2-1.7 5.9-4 8-6.9h.2v7.9c0 .1.1.3.3.2h16.8c.1-.1.2-.2.2-.4V81.1c0-.1-.1-.3-.3-.2h-17c-.1.1-.2.2-.2.4v39.5c0 7.7-6.3 14-14 14s-14-6.3-14-14V81.3Z"/>
    <path id="F" class="cls-2" d="M136.7 50.4c0-.2 0-.3-.2-.3h-8.2c-5.5 0-10.1.5-13.9 1.4-3.7.9-6.6 2.5-8.9 4.8-2.2 2.2-3.8 5.1-4.8 8.8-.9 3.7-1.4 8.3-1.4 13.8V81c0 .1-.1.2-.3.2H88.4c-.1 0-.2.1-.2.2v15c0 .1.1.2.2.2H99c.1 0 .3.1.3.2v51.6c0 .1.1.2.2.2h16.7c.1 0 .2-.1.2-.2V96.8c0-.1.1-.2.2-.2h15.8c.1 0 .2-.1.2-.2v-15c0-.1-.1-.2-.2-.2h-15.8c-.1 0-.2-.1-.2-.2v-3c0-2.6.1-4.6.4-6.1.2-1.6.8-2.8 1.8-3.6 1-.9 2.4-1.5 4.1-1.8 1.8-.3 4.1-.5 7.1-.5h2.7c.1 0 .2 0 .2-.2l3.9-15.3Z"/>
  </g>
</svg>