<svg width="24" height="44" viewBox="0 0 24 44" fill="none" xmlns="http://www.w3.org/2000/svg">
<path fill-rule="evenodd" clip-rule="evenodd" d="M17.8303 19.4686C17.5388 19.1771 17.0613 19.1771 16.7693 19.4686L11.9998 24.2386L7.22982 19.4686C6.93782 19.1771 6.46082 19.1771 6.16882 19.4686C5.87732 19.7601 5.87732 20.2376 6.16882 20.5291L11.4548 25.8146C11.4598 25.8201 11.4613 25.8271 11.4663 25.8326C11.6128 25.9791 11.8063 26.0516 11.9998 26.0506C12.1928 26.0516 12.3863 25.9791 12.5328 25.8326C12.5383 25.8271 12.5393 25.8201 12.5448 25.8146L17.8303 20.5291C18.1218 20.2376 18.1218 19.7601 17.8303 19.4686Z" fill="#0071B3"/>
</svg>
