<svg width="24" height="24" viewBox="0 0 24 24" fill="none" xmlns="http://www.w3.org/2000/svg">
<path d="M9 11C9 11.5523 8.55228 12 8 12C7.44772 12 7 11.5523 7 11C7 10.4477 7.44772 10 8 10C8.55228 10 9 10.4477 9 11Z" fill="#0071B3"/>
<path d="M12 12C12.5523 12 13 11.5523 13 11C13 10.4477 12.5523 10 12 10C11.4477 10 11 10.4477 11 11C11 11.5523 11.4477 12 12 12Z" fill="#0071B3"/>
<path d="M17 11C17 11.5523 16.5523 12 16 12C15.4477 12 15 11.5523 15 11C15 10.4477 15.4477 10 16 10C16.5523 10 17 10.4477 17 11Z" fill="#0071B3"/>
<path d="M8 15.5C8.55228 15.5 9 15.0523 9 14.5C9 13.9477 8.55228 13.5 8 13.5C7.44772 13.5 7 13.9477 7 14.5C7 15.0523 7.44772 15.5 8 15.5Z" fill="#0071B3"/>
<path d="M13 14.5C13 15.0523 12.5523 15.5 12 15.5C11.4477 15.5 11 15.0523 11 14.5C11 13.9477 11.4477 13.5 12 13.5C12.5523 13.5 13 13.9477 13 14.5Z" fill="#0071B3"/>
<path d="M16 15.5C16.5523 15.5 17 15.0523 17 14.5C17 13.9477 16.5523 13.5 16 13.5C15.4477 13.5 15 13.9477 15 14.5C15 15.0523 15.4477 15.5 16 15.5Z" fill="#0071B3"/>
<path d="M9 18C9 18.5523 8.55228 19 8 19C7.44772 19 7 18.5523 7 18C7 17.4477 7.44772 17 8 17C8.55228 17 9 17.4477 9 18Z" fill="#0071B3"/>
<path d="M12 19C12.5523 19 13 18.5523 13 18C13 17.4477 12.5523 17 12 17C11.4477 17 11 17.4477 11 18C11 18.5523 11.4477 19 12 19Z" fill="#0071B3"/>
<path d="M17 18C17 18.5523 16.5523 19 16 19C15.4477 19 15 18.5523 15 18C15 17.4477 15.4477 17 16 17C16.5523 17 17 17.4477 17 18Z" fill="#0071B3"/>
<path d="M7.75 5C7.33579 5 7 5.33579 7 5.75V7.25C7 7.66421 7.33579 8 7.75 8H16.25C16.6642 8 17 7.66421 17 7.25V5.75C17 5.33579 16.6642 5 16.25 5H7.75Z" fill="#0071B3"/>
<path fill-rule="evenodd" clip-rule="evenodd" d="M4.75 2H19.25C19.6642 2 20 2.33579 20 2.75V21.25C20 21.6642 19.6642 22 19.25 22H4.75C4.33579 22 4 21.6642 4 21.25V2.75C4 2.33579 4.33579 2 4.75 2ZM18.5 3.5H5.5V20.5H18.5V3.5Z" fill="#0071B3"/>
</svg>
