<svg width="24" height="24" viewBox="0 0 24 24" fill="none" xmlns="http://www.w3.org/2000/svg">
<path fill-rule="evenodd" clip-rule="evenodd" d="M21 6.25V19.205V19.25C21 19.6642 20.6642 20 20.25 20H3.75C3.33579 20 3 19.6642 3 19.25V6.25C3 5.83579 3.33579 5.5 3.75 5.5H7.25V4.75C7.25 4.33579 7.58579 4 8 4C8.41421 4 8.75 4.33579 8.75 4.75V5.5H15.25V4.75C15.25 4.33579 15.5858 4 16 4C16.4142 4 16.75 4.33579 16.75 4.75V5.5H20.25C20.6642 5.5 21 5.83579 21 6.25ZM8.75 7.75C8.75 8.16421 8.41421 8.5 8 8.5C7.58579 8.5 7.25 8.16421 7.25 7.75V7H4.5V18.5H19.5V7H16.75V7.75C16.75 8.16421 16.4142 8.5 16 8.5C15.5858 8.5 15.25 8.16421 15.25 7.75V7H8.75V7.75ZM9 11.5C9 12.0523 8.55228 12.5 8 12.5C7.44772 12.5 7 12.0523 7 11.5C7 10.9477 7.44772 10.5 8 10.5C8.55228 10.5 9 10.9477 9 11.5ZM8 16.5C8.55228 16.5 9 16.0523 9 15.5C9 14.9477 8.55228 14.5 8 14.5C7.44772 14.5 7 14.9477 7 15.5C7 16.0523 7.44772 16.5 8 16.5ZM13.005 11.5C13.005 12.0523 12.5573 12.5 12.005 12.5C11.4527 12.5 11.005 12.0523 11.005 11.5C11.005 10.9477 11.4527 10.5 12.005 10.5C12.5573 10.5 13.005 10.9477 13.005 11.5ZM12.005 16.5C12.5573 16.5 13.005 16.0523 13.005 15.5C13.005 14.9477 12.5573 14.5 12.005 14.5C11.4527 14.5 11.005 14.9477 11.005 15.5C11.005 16.0523 11.4527 16.5 12.005 16.5ZM17 11.5C17 12.0523 16.5523 12.5 16 12.5C15.4477 12.5 15 12.0523 15 11.5C15 10.9477 15.4477 10.5 16 10.5C16.5523 10.5 17 10.9477 17 11.5ZM16 16.5C16.5523 16.5 17 16.0523 17 15.5C17 14.9477 16.5523 14.5 16 14.5C15.4477 14.5 15 14.9477 15 15.5C15 16.0523 15.4477 16.5 16 16.5Z" fill="#0071B3"/>
</svg>
