<svg width="19" height="16" viewBox="0 0 19 16" fill="none" xmlns="http://www.w3.org/2000/svg">
<path d="M6.33301 7.5C6.33301 8.05228 5.88529 8.5 5.33301 8.5C4.78072 8.5 4.33301 8.05228 4.33301 7.5C4.33301 6.94772 4.78072 6.5 5.33301 6.5C5.88529 6.5 6.33301 6.94772 6.33301 7.5Z" fill="#999999"/>
<path d="M5.33301 12.5C5.88529 12.5 6.33301 12.0523 6.33301 11.5C6.33301 10.9477 5.88529 10.5 5.33301 10.5C4.78072 10.5 4.33301 10.9477 4.33301 11.5C4.33301 12.0523 4.78072 12.5 5.33301 12.5Z" fill="#999999"/>
<path d="M10.338 7.5C10.338 8.05228 9.89029 8.5 9.33801 8.5C8.78572 8.5 8.33801 8.05228 8.33801 7.5C8.33801 6.94772 8.78572 6.5 9.33801 6.5C9.89029 6.5 10.338 6.94772 10.338 7.5Z" fill="#999999"/>
<path d="M9.33801 12.5C9.89029 12.5 10.338 12.0523 10.338 11.5C10.338 10.9477 9.89029 10.5 9.33801 10.5C8.78572 10.5 8.33801 10.9477 8.33801 11.5C8.33801 12.0523 8.78572 12.5 9.33801 12.5Z" fill="#999999"/>
<path d="M14.333 7.5C14.333 8.05228 13.8853 8.5 13.333 8.5C12.7807 8.5 12.333 8.05228 12.333 7.5C12.333 6.94772 12.7807 6.5 13.333 6.5C13.8853 6.5 14.333 6.94772 14.333 7.5Z" fill="#999999"/>
<path d="M13.333 12.5C13.8853 12.5 14.333 12.0523 14.333 11.5C14.333 10.9477 13.8853 10.5 13.333 10.5C12.7807 10.5 12.333 10.9477 12.333 11.5C12.333 12.0523 12.7807 12.5 13.333 12.5Z" fill="#999999"/>
<path fill-rule="evenodd" clip-rule="evenodd" d="M18.333 2.25V15.25C18.333 15.6642 17.9972 16 17.583 16H1.08301C0.668794 16 0.333008 15.6642 0.333008 15.25V2.25C0.333008 1.83579 0.668794 1.5 1.08301 1.5H4.58301V0.75C4.58301 0.335786 4.91879 0 5.33301 0C5.74722 0 6.08301 0.335786 6.08301 0.75V1.5H12.583V0.75C12.583 0.335786 12.9188 0 13.333 0C13.7472 0 14.083 0.335786 14.083 0.75V1.5H17.583C17.9972 1.5 18.333 1.83579 18.333 2.25ZM6.08301 3.75C6.08301 4.16421 5.74722 4.5 5.33301 4.5C4.91879 4.5 4.58301 4.16421 4.58301 3.75V3H1.83301V14.5H16.833V3H14.083V3.75C14.083 4.16421 13.7472 4.5 13.333 4.5C12.9188 4.5 12.583 4.16421 12.583 3.75V3H6.08301V3.75Z" fill="#999999"/>
</svg>
