<svg width="24" height="24" viewBox="0 0 24 24" fill="none" xmlns="http://www.w3.org/2000/svg">
<path fill-rule="evenodd" clip-rule="evenodd" d="M12 2C6.47715 2 2 6.47715 2 12C2 17.5228 6.47715 22 12 22C17.5228 22 22 17.5228 22 12C22 9.34784 20.9464 6.8043 19.0711 4.92893C17.1957 3.05357 14.6522 2 12 2ZM12 20.5C7.30558 20.5 3.5 16.6944 3.5 12C3.5 7.30558 7.30558 3.5 12 3.5C16.6944 3.5 20.5 7.30558 20.5 12C20.5 14.2543 19.6045 16.4163 18.0104 18.0104C16.4163 19.6045 14.2543 20.5 12 20.5ZM12.5 12.5L16.12 14.595C16.2935 14.6934 16.4203 14.8573 16.472 15.05C16.5237 15.2426 16.4959 15.448 16.395 15.62C16.1841 15.9804 15.722 16.1032 15.36 15.895L11.36 13.615C11.1735 13.5081 11.0422 13.3258 11 13.115V13.085C10.9975 13.05 10.9975 13.015 11 12.98V12.955V6.75C11 6.33579 11.3358 6 11.75 6C12.1642 6 12.5 6.33579 12.5 6.75V12.5Z" fill="#737373"/>
</svg>
