<svg width="24" height="24" viewBox="0 0 24 24" fill="none" xmlns="http://www.w3.org/2000/svg">
<path fill-rule="evenodd" clip-rule="evenodd" d="M17.75 7C17.335 7 17 7.335 17 7.75V19C17 19.827 16.327 20.5 15.5 20.5H8.5C7.673 20.5 7 19.827 7 19V7.75C7 7.335 6.664 7 6.25 7C5.835 7 5.5 7.335 5.5 7.75V19.25C5.5 19.336 5.517 19.417 5.544 19.494C5.78 20.915 7.011 22 8.5 22H15.5C16.988 22 18.22 20.915 18.456 19.494C18.482 19.417 18.5 19.336 18.5 19.25V7.75C18.5 7.335 18.164 7 17.75 7ZM9.75 3.5H14.25C14.664 3.5 15 3.165 15 2.75C15 2.335 14.664 2 14.25 2H9.75C9.335 2 9 2.335 9 2.75C9 3.165 9.335 3.5 9.75 3.5ZM18.75 4H5.25C4.835 4 4.5 4.336 4.5 4.75C4.5 5.164 4.835 5.5 5.25 5.5H18.75C19.164 5.5 19.5 5.164 19.5 4.75C19.5 4.336 19.164 4 18.75 4ZM14.75 19C14.335 19 14 18.664 14 18.25V7.75C14 7.335 14.335 7 14.75 7C15.164 7 15.5 7.335 15.5 7.75V18.25C15.5 18.664 15.164 19 14.75 19ZM9.25 19C8.835 19 8.5 18.664 8.5 18.25V7.75C8.5 7.335 8.835 7 9.25 7C9.664 7 10 7.335 10 7.75V18.25C10 18.664 9.664 19 9.25 19Z" fill="#0071B3"/>
</svg>
