<svg width="18" height="18" viewBox="0 0 18 18" fill="none" xmlns="http://www.w3.org/2000/svg">
<path d="M16.5001 1.92998C15.5606 1.02118 14.3072 0.509082 13.0001 0.499981C11.9176 0.496334 10.8638 0.8476 10.0001 1.49998C9.62148 1.78476 9.28484 2.12139 9.00006 2.49998C8.71528 2.12139 8.37865 1.78476 8.00006 1.49998C7.13757 0.84386 6.08376 0.488586 5.00006 0.488586C3.91637 0.488586 2.86256 0.84386 2.00006 1.49998C1.37618 1.96298 0.870035 2.56634 0.522586 3.26124C0.175136 3.95614 -0.00386551 4.72307 6.33027e-05 5.49998C6.33027e-05 13 8.00006 17.5 9.00006 17.5C10.0001 17.5 18.0001 13 18.0001 5.49998C18 4.83508 17.8673 4.17687 17.6097 3.56387C17.3521 2.95088 16.9749 2.39541 16.5001 1.92998ZM9.00006 15.93C6.31722 14.6026 4.09973 12.4932 2.64006 9.87998C1.90844 8.53484 1.51706 7.03112 1.50006 5.49998C1.50039 4.69661 1.77707 3.91781 2.28367 3.2943C2.79027 2.67079 3.49595 2.24055 4.28225 2.07579C5.06854 1.91102 5.88758 2.02177 6.60188 2.38944C7.31617 2.75711 7.88224 3.35932 8.20506 4.09498C8.23506 4.16498 8.26006 4.23998 8.29006 4.31498C8.3403 4.46205 8.43528 4.58973 8.5617 4.68014C8.68812 4.77054 8.83965 4.81915 8.99506 4.81915C9.15048 4.81915 9.30201 4.77054 9.42842 4.68014C9.55484 4.58973 9.64982 4.46205 9.70006 4.31498C9.72506 4.23998 9.75506 4.16498 9.78506 4.09498C10.1042 3.35319 10.67 2.74458 11.3866 2.37231C12.1032 2.00005 12.9265 1.88702 13.7169 2.0524C14.5073 2.21778 15.2162 2.65139 15.7235 3.27973C16.2307 3.90806 16.5051 4.69247 16.5001 5.49998C16.4872 7.0396 16.0956 8.55239 15.3601 9.90498C13.9004 12.5182 11.6829 14.6276 9.00006 15.955V15.93Z" fill="#999999"/>
</svg>
