<svg width="20" height="20" viewBox="0 0 20 20" fill="none" xmlns="http://www.w3.org/2000/svg">
<path fill-rule="evenodd" clip-rule="evenodd" d="M15.338 3.4625C14.6745 3.4625 14.137 4 14.137 4.6625C14.137 5.325 14.6745 5.8625 15.338 5.8625C16.0005 5.8625 16.537 5.325 16.537 4.6625C16.537 4 16.0005 3.4625 15.338 3.4625ZM9.9995 13.3335C8.159 13.3335 6.6665 11.8415 6.6665 10C6.6665 8.159 8.159 6.6665 9.9995 6.6665C11.8405 6.6665 13.333 8.159 13.333 10C13.333 11.8415 11.8405 13.3335 9.9995 13.3335ZM9.9995 4.865C7.164 4.865 4.8645 7.164 4.8645 10C4.8645 12.836 7.164 15.136 9.9995 15.136C12.8355 15.136 15.1345 12.8365 15.1345 10C15.1345 7.164 12.8355 4.865 9.9995 4.865ZM9.9995 0C7.284 0 6.944 0.012 5.8775 0.06C2.2455 0.2265 0.227 2.242 0.0605 5.8765C0.0115 6.944 0 7.2845 0 10C0 12.7155 0.0115 13.0565 0.0595 14.123C0.2265 17.755 2.2415 19.7735 5.8765 19.94C6.944 19.988 7.284 20 9.9995 20C12.7155 20 13.0565 19.988 14.123 19.94C17.7515 19.7735 19.7745 17.758 19.939 14.123C19.988 13.0565 19.9995 12.7155 19.9995 10C19.9995 7.2845 19.988 6.944 19.9395 5.8775C19.776 2.249 17.7585 0.2275 14.124 0.061C13.0565 0.012 12.7155 0 9.9995 0ZM9.9995 1.8025C12.6695 1.8025 12.986 1.8125 14.0415 1.861C16.7515 1.984 18.017 3.27 18.1405 5.96C18.189 7.0145 18.198 7.331 18.198 10.001C18.198 12.6715 18.188 12.9875 18.1405 14.0415C18.016 16.729 16.754 18.0175 14.0415 18.1405C12.986 18.189 12.6715 18.199 9.9995 18.199C7.3295 18.199 7.013 18.189 5.959 18.1405C3.2425 18.0165 1.983 16.725 1.8595 14.041C1.8115 12.9865 1.8015 12.671 1.8015 10C1.8015 7.33 1.812 7.0145 1.8595 5.959C1.984 3.27 3.2465 1.9835 5.959 1.86C7.014 1.8125 7.3295 1.8025 9.9995 1.8025Z" fill="#0071B3"/>
</svg>
