<svg width="20" height="20" viewBox="0 0 20 20" fill="none" xmlns="http://www.w3.org/2000/svg">
<path d="M4.88488 2.46C4.88488 3.81862 3.79246 4.92 2.44488 4.92C1.09731 4.92 0.00488281 3.81862 0.00488281 2.46C0.00488281 1.10138 1.09731 0 2.44488 0C3.79246 0 4.88488 1.10138 4.88488 2.46Z" fill="#0071B3"/>
<path d="M15.1449 6.26C13.5186 6.24334 12.0017 7.0776 11.1449 8.46V6.665H7.16988V20H11.1299V13C11.1299 11.125 11.9949 10 13.6299 10C15.1299 10 15.8749 11.07 15.8749 13V20H19.9999V11.56C19.9999 8 17.9699 6.26 15.1449 6.26Z" fill="#0071B3"/>
<path d="M4.52488 6.665H0.399883V20H4.52488V6.665Z" fill="#0071B3"/>
</svg>
