<svg width="22" height="22" viewBox="0 0 22 22" fill="none" xmlns="http://www.w3.org/2000/svg">
<path fill-rule="evenodd" clip-rule="evenodd" d="M11 0.5C5.20101 0.5 0.5 5.20101 0.5 11C0.5 16.799 5.20101 21.5 11 21.5C16.799 21.5 21.5 16.799 21.5 11C21.5 8.21523 20.3938 5.54451 18.4246 3.57538C16.4555 1.60625 13.7848 0.5 11 0.5ZM6.5 18.78V16.5C6.5 15.275 7.56 14.26 8.955 14.045C9.13525 14.0161 9.31745 14.0011 9.5 14H12.5C12.6825 14.0011 12.8647 14.0161 13.045 14.045C14.44 14.26 15.5 15.275 15.5 16.5V18.78C12.7196 20.4033 9.2804 20.4033 6.5 18.78ZM17 16.25C16.9992 16.1823 16.9891 16.115 16.97 16.05C16.72 14.05 14.815 12.5 12.5 12.5H9.5C7.185 12.5 5.28 14.055 5.03 16.05C5.01089 16.115 5.0008 16.1823 5 16.25V17.69C2.21867 15.2023 1.26095 11.2563 2.59245 7.7704C3.92395 4.28449 7.26846 1.9818 11 1.9818C14.7315 1.9818 18.0761 4.28449 19.4076 7.7704C20.739 11.2563 19.7813 15.2023 17 17.69V16.25ZM11 3.5C8.79086 3.5 7 5.29086 7 7.5C7 9.70914 8.79086 11.5 11 11.5C13.2091 11.5 15 9.70914 15 7.5C15 6.43913 14.5786 5.42172 13.8284 4.67157C13.0783 3.92143 12.0609 3.5 11 3.5ZM11 10C9.61929 10 8.5 8.88071 8.5 7.5C8.5 6.11929 9.61929 5 11 5C12.3807 5 13.5 6.11929 13.5 7.5C13.5 8.88071 12.3807 10 11 10Z" fill="white"/>
</svg>
