<svg width="14" height="20" viewBox="0 0 14 20" fill="none" xmlns="http://www.w3.org/2000/svg">
<path fill-rule="evenodd" clip-rule="evenodd" d="M12.8638 6.11124C12.8638 5.07874 12.0138 4.24224 10.9653 4.24224C9.91675 4.24224 9.06675 5.07874 9.06675 6.11124L9.07325 13.3702C9.07325 13.6767 8.82075 13.9247 8.50925 13.9247H5.41525C5.10425 13.9247 4.85175 13.6767 4.85175 13.3702L4.85825 6.11124C4.85825 5.07874 4.00825 4.24224 2.95975 4.24224C1.91125 4.24224 1.06125 5.07874 1.06125 6.11124C1.06125 7.14374 1.91125 7.98024 2.95975 7.98024H3.07525C3.71625 7.98024 4.23575 8.49174 4.23575 9.12274V13.3702C4.23575 13.6767 3.98375 13.9247 3.67225 13.9247H0.57275C0.26175 13.9247 0.00874996 13.6767 0.00874996 13.3702V1.00074C0.00874996 0.448244 0.46425 0.000244141 1.02575 0.000244141L5.20525 0.00474414C6.02325 0.00474414 6.68625 0.658244 6.68625 1.46274L6.61125 1.48674C5.74625 1.64924 5.09325 2.39824 5.09325 3.29674C5.09325 4.31324 5.92975 5.13774 6.96275 5.13874C7.99525 5.13774 8.83125 4.31324 8.83125 3.29674C8.83125 2.39824 8.17775 1.64924 7.31375 1.48674L7.23825 1.46274C7.23825 0.658244 7.90175 0.00474414 8.71925 0.00474414L12.8993 0.000244141C13.4608 0.000244141 13.9158 0.448244 13.9158 1.00074V13.3702C13.9158 13.6767 13.6633 13.9247 13.3518 13.9247H10.2533C9.94175 13.9247 9.68925 13.6767 9.68925 13.3702V9.12274C9.68925 8.49174 10.2088 7.98024 10.8498 7.98024H10.9653C12.0138 7.98024 12.8638 7.14374 12.8638 6.11124ZM0 19.9172V15.2827H0.3035L2.945 18.0832V15.3662H3.876V20.0002H3.5655L0.9305 17.1862V19.9172H0ZM6.676 18.1244L7.8075 15.3659H8.8555L6.828 19.9999H6.518L4.4835 15.3659H5.5385L6.676 18.1244ZM13.6215 15.3655L11.6975 17.828L9.773 15.3655H9.47V20H10.401V17.573L11.5455 19.0075H11.849L12.994 17.573V20H13.925V15.3655H13.6215Z" fill="#005AD2"/>
</svg>
