<svg width="36" height="36" viewBox="0 0 36 36" fill="none" xmlns="http://www.w3.org/2000/svg">
<path fill-rule="evenodd" clip-rule="evenodd" d="M28.5 30.75H30V22.5H28.5V30.75ZM26.25 18.75H9.75375V11.9677C9.771 10.329 11.106 9.00075 12.7485 9H23.2537C24.906 9.00225 26.25 10.3463 26.25 12V18.75ZM26.25 32.25H9.75375V21H11.625V22.125C11.625 22.746 12.129 23.25 12.75 23.25C13.371 23.25 13.875 22.746 13.875 22.125V21H26.25V32.25ZM15 5.25C15 4.836 15.3368 4.5 15.75 4.5H20.25C20.6632 4.5 21 4.836 21 5.25H21.0037V6.75H15V5.25ZM6.00075 30.75H7.50375V22.5H6.00075V30.75ZM31.125 20.25H28.5037V18.75H28.5V12C28.5 10.8758 28.1445 9.83625 27.5415 8.98275C27.1927 8.4885 26.7623 8.05575 26.2673 7.707C25.4137 7.10625 24.3757 6.75075 23.2537 6.75V5.25H23.25C23.25 4.98225 23.2043 4.728 23.1383 4.48125C22.9005 3.588 22.2712 2.85525 21.435 2.49525C21.0712 2.3385 20.6715 2.25 20.25 2.25H15.75C15.33 2.25 14.9303 2.33775 14.5673 2.49375C13.7348 2.8515 13.1077 3.57975 12.8663 4.467C12.7987 4.71825 12.75 4.977 12.75 5.25V6.75H12.7485C11.6265 6.75 10.5892 7.1055 9.7365 7.70475C9.24 8.05425 8.80725 8.487 8.4585 8.98275C7.86825 9.81975 7.5165 10.836 7.50375 11.9355C7.503 11.9565 7.5 11.9782 7.5 12C7.5 12.021 7.503 12.0428 7.50375 12.0645V20.25H4.875C4.254 20.25 3.75 20.7533 3.75 21.375V31.875C3.75 32.4967 4.254 33 4.875 33H7.50375V33.3465C7.503 33.3563 7.50075 33.3652 7.50075 33.375C7.50075 33.9967 8.004 34.5 8.62575 34.5H27.3757C27.9967 34.5 28.5007 33.9967 28.5007 33.375L28.5 33.3713V33H31.125C31.746 33 32.25 32.4967 32.25 31.875V21.375C32.25 20.7533 31.746 20.25 31.125 20.25Z" fill="#0071B3"/>
</svg>
