<svg width="20" height="17" viewBox="0 0 20 17" fill="none" xmlns="http://www.w3.org/2000/svg">
<path fill-rule="evenodd" clip-rule="evenodd" d="M20 1.93007C19.2516 2.2614 18.4578 2.47881 17.645 2.57507C18.5013 2.06375 19.1427 1.25885 19.45 0.31007C18.645 0.789514 17.764 1.12773 16.845 1.31007C15.5757 -0.0552016 13.5458 -0.393786 11.9021 0.485596C10.2584 1.36498 9.41362 3.24151 9.845 5.05507C6.54512 4.88718 3.47174 3.32595 1.39 0.76007C0.288366 2.64019 0.845575 5.0533 2.66 6.26007C2.00901 6.24404 1.37129 6.07261 0.8 5.76007C0.77518 7.73243 2.15672 9.4436 4.09 9.83507C3.4851 9.99956 2.85058 10.0235 2.235 9.90507C2.7718 11.5778 4.31352 12.7235 6.07 12.7551C4.34621 14.0904 2.16386 14.689 0 14.4201C1.87604 15.6262 4.05968 16.2667 6.29 16.2651C13.91 16.2651 18.21 9.83007 17.955 4.06007C18.758 3.47744 19.4505 2.75612 20 1.93007Z" fill="#0071B3"/>
</svg>
