<svg width="14" height="22" viewBox="0 0 14 22" fill="none" xmlns="http://www.w3.org/2000/svg">
<path fill-rule="evenodd" clip-rule="evenodd" d="M8 17V20.5H9.25223C9.66521 20.5 10 20.8329 10 21.25C10 21.6642 9.66022 22 9.25223 22H4.74777C4.33479 22 4 21.6671 4 21.25C4 20.8358 4.33978 20.5 4.74777 20.5H6V17H1.49555C0.669578 17 0 16.3284 0 15.496V3.50397C0 2.67335 0.670885 2 1.49555 2H6V1.00244C6 0.448808 6.44386 0 7 0C7.55228 0 8 0.44695 8 1.00244V2H12.5045C13.3304 2 14 2.67156 14 3.50397V15.496C14 16.3267 13.3291 17 12.5045 17H8ZM12.5 3.50397C12.5 3.50114 1.49555 3.5 1.49555 3.5C1.50055 3.5 1.5 15.496 1.5 15.496C1.5 15.4989 12.5045 15.5 12.5045 15.5C12.5012 15.5 12.5 3.50397 12.5 3.50397ZM3 7.24929C3 6.83547 3.33356 6.5 3.75262 6.5H10.2474C10.663 6.5 11 6.83251 11 7.24929V8.75071C11 9.16453 10.6664 9.5 10.2474 9.5H3.75262C3.33696 9.5 3 9.16749 3 8.75071V7.24929Z" fill="#0071B3"/>
</svg>
