<svg width="22" height="20" viewBox="0 0 22 20" fill="none" xmlns="http://www.w3.org/2000/svg">
<path d="M10.2045 7.415C10.2045 7.00079 10.5403 6.665 10.9545 6.665C11.3687 6.665 11.7045 7.00079 11.7045 7.415V13.415C11.7045 13.8292 11.3687 14.165 10.9545 14.165C10.5403 14.165 10.2045 13.8292 10.2045 13.415V7.415Z" fill="#0071B3"/>
<path d="M10.9545 15.165C10.5403 15.165 10.2045 15.5008 10.2045 15.915C10.2045 16.3292 10.5403 16.665 10.9545 16.665C11.3687 16.665 11.7045 16.3292 11.7045 15.915C11.7045 15.5008 11.3687 15.165 10.9545 15.165Z" fill="#0071B3"/>
<path fill-rule="evenodd" clip-rule="evenodd" d="M21.8895 19.225L21.8495 19.295L21.7945 19.38L21.7445 19.445L21.6995 19.49L21.6395 19.54L21.5795 19.585H21.5395L21.4695 19.615H0.45448L0.35948 19.56H0.31948L0.25448 19.515L0.19948 19.47L0.14948 19.415L0.10448 19.36L0.0644802 19.295L0.0294802 19.235C0.0199873 19.2121 0.0116436 19.1887 0.00448022 19.165V19.03C0.00303772 19.0034 0.00303772 18.9766 0.00448022 18.95V18.88C-0.00149341 18.8302 -0.00149341 18.7798 0.00448022 18.73V18.665L0.0544802 18.575V18.54L10.3695 0.78L10.3945 0.745L10.4395 0.685L10.4895 0.63L10.5395 0.585L10.6095 0.535H10.6445L10.7195 0.5H11.2745L11.3495 0.535H11.3845L11.4545 0.585L11.4845 0.61L11.5345 0.665L11.5795 0.75L11.6045 0.785L21.8595 18.56V18.6L21.8895 18.67C21.8907 18.695 21.8907 18.72 21.8895 18.745V18.81C21.8913 18.84 21.8913 18.87 21.8895 18.9V18.935C21.8913 18.965 21.8913 18.995 21.8895 19.025V19.085C21.8909 19.1116 21.8909 19.1384 21.8895 19.165V19.225ZM19.9045 18.165L10.9545 2.665L2.00448 18.165H19.9045Z" fill="#0071B3"/>
</svg>
