<svg width="19" height="19" viewBox="0 0 19 19" fill="none" xmlns="http://www.w3.org/2000/svg">
<path fill-rule="evenodd" clip-rule="evenodd" d="M16.2644 13.1394V4.8894C17.4018 4.53919 18.1346 3.43577 18.0163 2.2516C17.898 1.06742 16.9614 0.130782 15.7772 0.0124854C14.593 -0.105811 13.4896 0.627031 13.1394 1.7644H4.8894C4.53919 0.627031 3.43577 -0.105811 2.2516 0.0124854C1.06742 0.130782 0.130782 1.06742 0.0124854 2.2516C-0.105811 3.43577 0.627031 4.53919 1.7644 4.8894V13.1394C0.627031 13.4896 -0.105811 14.593 0.0124854 15.7772C0.130782 16.9614 1.06742 17.898 2.2516 18.0163C3.43577 18.1346 4.53919 17.4018 4.8894 16.2644H13.1394C13.4896 17.4018 14.593 18.1346 15.7772 18.0163C16.9614 17.898 17.898 16.9614 18.0163 15.7772C18.1346 14.593 17.4018 13.4896 16.2644 13.1394ZM13.1394 14.7644H4.8894C4.64354 13.9911 4.03768 13.3853 3.2644 13.1394V4.8894C4.03768 4.64354 4.64354 4.03768 4.8894 3.2644H13.1394C13.3853 4.03768 13.9911 4.64354 14.7644 4.8894V13.1394C13.9911 13.3853 13.3853 13.9911 13.1394 14.7644ZM15.5144 1.5144C16.0667 1.5144 16.5144 1.96212 16.5144 2.5144C16.5144 3.06669 16.0667 3.5144 15.5144 3.5144C14.9621 3.5144 14.5144 3.06669 14.5144 2.5144C14.5144 1.96212 14.9621 1.5144 15.5144 1.5144ZM2.5144 1.5144C3.06669 1.5144 3.5144 1.96212 3.5144 2.5144C3.5144 3.06669 3.06669 3.5144 2.5144 3.5144C1.96212 3.5144 1.5144 3.06669 1.5144 2.5144C1.5144 1.96212 1.96212 1.5144 2.5144 1.5144ZM2.5144 16.5144C1.96212 16.5144 1.5144 16.0667 1.5144 15.5144C1.5144 14.9621 1.96212 14.5144 2.5144 14.5144C3.06669 14.5144 3.5144 14.9621 3.5144 15.5144C3.5144 16.0667 3.06669 16.5144 2.5144 16.5144ZM15.5144 16.5144C14.9621 16.5144 14.5144 16.0667 14.5144 15.5144C14.5144 14.9621 14.9621 14.5144 15.5144 14.5144C16.0667 14.5144 16.5144 14.9621 16.5144 15.5144C16.5144 16.0667 16.0667 16.5144 15.5144 16.5144Z" fill="#0071B3"/>
</svg>
